<svg xmlns="http://www.w3.org/2000/svg" xmlns:xlink="http://www.w3.org/1999/xlink" x="0px" y="0px"
	 viewBox="0 0 24 30" style="enable-background:new 0 0 24 30;" xml:space="preserve">
<style type="text/css">
	.st0{fill:#034737;}
</style>
<path class="st0" d="M22.4,1H10.1C10,1,10,1,9.9,1c-0.1,0-0.1,0.1-0.1,0.1c0,0,0,0,0,0L1.3,9.6c0,0,0,0,0,0c0,0-0.1,0.1-0.1,0.1
	c0,0.1,0,0.1,0,0.2v18.6c0,0.3,0.2,0.5,0.5,0.5h20.8c0.3,0,0.5-0.2,0.5-0.5V1.5C22.9,1.2,22.7,1,22.4,1z M7.8,4.4
	c-0.5,1.7-0.3,3.2,0,4.1C6.9,8.3,5.5,8,4,8.2L7.8,4.4z M21.9,28.1H2.1V10.2C4.5,8,8.3,9.8,8.3,9.8c0.2,0.1,0.4,0.1,0.5-0.1
	C9,9.6,9.1,9.3,9,9.2c0,0-1.7-4,1.3-7.2h11.6C21.9,1.9,21.9,28.1,21.9,28.1z"/>
<path d="M9.8,13l-1.6,6.8H10l0.2-1.2h1.4l0.2,1.2h1.9L12,13H9.8z M10.4,17.3l0.5-2.9h0l0.5,2.9H10.4z"/>
<rect x="14.1" y="13" width="1.8" height="6.8"/>
</svg>
