<svg xmlns="http://www.w3.org/2000/svg" xmlns:xlink="http://www.w3.org/1999/xlink" x="0px" y="0px"
	 viewBox="0 0 150 150" style="enable-background:new 0 0 150 150;" xml:space="preserve">
<style type="text/css">
	.st0{fill:#034737;}
</style>
<path d="M101.8,108.4"/>
<g>
	<path d="M134.2,25.1c0-0.1,0-0.2,0-0.3c0,0,0,0.1,0,0v0v0c0,0,0,0,0,0c-0.1-0.7-0.4-1.4-0.9-1.9l-17-17C115.8,5.3,115,5,114.1,5
		H29.8c-7.5,0.8-10.5,5-12.1,9.6c-1.4,4.1-1.6,8.6-1.9,16.3v93c0.4,6.7,2.6,13.7,7.4,16.8c7.3,4.7,16.6,4.4,40.7,4.4h67.2
		c1.7,0,3.1-1.4,3.1-3.1V25.1z M37.5,11.2h75.3L123.6,22H48.1c-6.5-0.4-10.4-0.7-12.8-1.7c-4-1.7-4-4.4-4-5.4
		C31.2,13.6,32.1,11.2,37.5,11.2z M39,138.8V28.2h89v110.6H39z"/>
	<rect x="55.2" y="43.2" class="st0" width="56.3" height="6.2"/>
</g>
<polygon class="st0" points="83.1,75.7 95.5,97.2 107.8,118.6 83.1,118.6 58.4,118.6 70.7,97.2 "/>
</svg>
