<svg xmlns="http://www.w3.org/2000/svg" xmlns:xlink="http://www.w3.org/1999/xlink" x="0px" y="0px"
	 viewBox="0 0 150 150" style="enable-background:new 0 0 150 150;" xml:space="preserve">
<style type="text/css">
	.st0{fill:#034737;}
</style>
<path d="M41,118.9l2.2,2.2l-20.9,7.3c-0.5,0.2-0.9-0.3-0.8-0.8l7.3-20.9l2.2,2.2L41,118.9z"/>
<path d="M71.5,93l-1.7,1.7l-22.6,22.6l-2-2l-10.7-10.7l-2-2l23.8-23.8l2,1.9l3.3,3.1l3.9,3.7l3.8,3.6L71.5,93z"/>
<path d="M45.3,123.1c-0.2,0.2-0.4,0.3-0.7,0.4L23.3,131c-0.4,0.1-0.8,0.2-1.1,0.2c-0.9,0-1.7-0.3-2.4-1c-0.9-0.9-1.2-2.3-0.8-3.5
	l7.5-21.3c0.1-0.2,0.2-0.5,0.4-0.7l2.1,2.1l2.2,2.2l-5.4,15.3l15.3-5.4L45.3,123.1z"/>
<path d="M30.7,100.7l23.8-23.8c0.4-0.4,0.9-0.6,1.4-0.8c0.1,0,0.1,0,0.2,0c0.1,0,0.2,0,0.2,0h0c0.1,0,0.2,0,0.3,0c0.1,0,0.2,0,0.3,0
	c0,0,0.1,0,0.1,0c0.1,0,0.2,0,0.3,0.1c0.1,0,0.2,0.1,0.3,0.1c0.2,0.1,0.3,0.2,0.5,0.3c0.1,0.1,0.2,0.1,0.2,0.2
	c0.1,0.1,0.1,0.1,0.2,0.2c0.1,0.1,0.1,0.1,0.2,0.2c0,0,0.1,0.1,0.1,0.1c0,0,0,0,0,0c0,0,0,0,0,0.1c0,0,0,0,0,0c0,0,0,0.1,0.1,0.1
	c0,0,0,0,0,0.1c0,0,0,0,0,0.1c0,0,0,0,0,0c0,0,0,0.1,0,0.1c0.1,0.2,0.1,0.3,0.2,0.5c0,0.1,0,0.1,0,0.2c0,0.1,0,0.1,0,0.2
	c0,0.1,0,0.1,0,0.2v0c0,0.1,0,0.1,0,0.1v0c0,0.1,0,0.2,0,0.3v0c0,0.1,0,0.1,0,0.2c0,0,0,0.1,0,0.1c0,0,0,0,0,0c0,0,0,0,0,0
	c0,0,0,0,0,0c0,0.1,0,0.1,0,0.2c0,0,0,0.1,0,0.1c0,0,0,0.1,0,0.1c0,0,0,0.1,0,0.1c0,0,0,0,0,0c0,0,0,0.1-0.1,0.1c0,0,0,0.1-0.1,0.1
	c0,0,0,0.1-0.1,0.1c0,0-0.1,0.1-0.1,0.1c0,0,0,0.1-0.1,0.1c0,0,0,0,0,0c0,0-0.1,0.1-0.1,0.1c0,0,0,0,0,0c0,0,0,0-0.1,0.1L57.2,82
	l-22.6,22.6L30.7,100.7z"/>
<path d="M73.5,95l-1.2,1.2l-0.5,0.5l-22.6,22.6l-2-2l-2-2l24.2-24.2c1.1-1.1,2.8-1.1,3.9,0c0.1,0.1,0.1,0.1,0.2,0.2c0,0,0,0,0.1,0.1
	c0,0,0,0,0.1,0.1c0,0,0,0.1,0.1,0.1c0,0.1,0.1,0.1,0.1,0.2c0,0,0,0.1,0.1,0.1c0,0,0,0.1,0.1,0.1c0,0,0,0.1,0,0.1
	c0,0.1,0.1,0.1,0.1,0.2c0,0,0,0.1,0,0.1c0,0,0,0.1,0,0.1c0,0,0,0,0,0c0,0,0,0.1,0,0.1c0,0.1,0,0.1,0,0.2c0,0,0,0.1,0,0.1
	c0,0,0,0.1,0,0.1c0,0,0,0,0,0C74.3,93.6,74.1,94.4,73.5,95L73.5,95z"/>
<path d="M124.6,36l2,2L92.9,71.6l-2-2L80.3,58.9l-2-2l1.8-1.8l31.8-31.8l2,2L124.6,36z"/>
<path d="M130.8,33.7l-0.4,0.4l-2-2l-10.7-10.7l-2-2l0.4-0.4c3-3,7.8-3,10.8,0l3.8,3.8C133.8,25.9,133.8,30.7,130.8,33.7z"/>
<path d="M113.9,25.4L82,57.2l-1.8,1.8c0,0,0,0,0,0c-1.1,1.1-2.8,1.1-3.9,0c-1.1-1.1-1.1-2.8,0-3.9l1.8-1.8l31.8-31.8L113.9,25.4z"/>
<path d="M126.5,38l2,2L94.9,73.6c-0.5,0.5-1.3,0.8-2,0.8c-0.7,0-1.4-0.3-2-0.8c-1.1-1.1-1.1-2.8,0-3.9l0,0l1.8-1.8L124.6,36
	L126.5,38z"/>
<path d="M132.8,35.6l-0.4,0.4l-2-2l-2-2l0.4-0.4c1.9-1.9,1.9-5,0-6.9L125,21c-0.9-0.9-2.1-1.4-3.4-1.4c-1.3,0-2.5,0.5-3.4,1.4
	l-0.4,0.4l-3.9-3.9l0.4-0.4c2-2,4.6-3,7.4-3c2.8,0,5.4,1.1,7.4,3l3.8,3.8C136.9,25,136.9,31.6,132.8,35.6z"/>
<path class="st0" d="M68.2,85.2l-3.9-3.9l-6.7-6.7l-1.6,1.6c0.1,0,0.1,0,0.2,0c0.1,0,0.2,0,0.2,0h0c0.1,0,0.2,0,0.3,0
	c0.1,0,0.2,0,0.3,0c0,0,0.1,0,0.1,0c0.1,0,0.2,0,0.3,0.1c0.1,0,0.2,0.1,0.3,0.1c0.2,0.1,0.3,0.2,0.5,0.3c0.1,0.1,0.2,0.1,0.2,0.2
	c0.1,0.1,0.1,0.1,0.2,0.2c0.1,0.1,0.1,0.1,0.2,0.2c0,0,0.1,0.1,0.1,0.1c0,0,0,0,0,0c0,0,0,0,0,0.1c0,0,0,0,0,0c0,0,0,0.1,0.1,0.1
	c0,0,0,0,0,0.1c0,0,0,0,0,0.1c0,0,0,0,0,0c0,0,0,0.1,0,0.1c0.1,0.2,0.1,0.3,0.2,0.5c0,0.1,0,0.1,0,0.2c0,0.1,0,0.1,0,0.2
	c0,0.2-0.1,0.4-0.1,0.6v0c0,0.1,0.1,0.1,0,0.2c0,0,0,0.1,0,0.1c0,0,0,0,0,0c0,0,0,0,0,0c0,0,0,0,0,0c0,0.1,0,0.1,0,0.2
	c0,0,0,0.1,0,0.1c0,0,0,0.1,0,0.1c0,0,0,0.1,0,0.1c0,0,0,0,0,0c0,0,0,0.1-0.1,0.1c0,0,0,0.1-0.1,0.1c0,0,0,0.1-0.1,0.1
	c0,0-0.1,0.1-0.1,0.1c0,0,0,0,0,0c0,0,0,0.1-0.1,0.1c0,0-0.1,0.1-0.1,0.1c0,0,0,0,0,0c0,0,0,0-0.1,0.1L57.2,82l5,5
	c0,0,0.1,0.1,0.1,0.1c0,0,0.1,0.1,0.1,0.1l5.5,5.5l1.7-1.7c1.1-1.1,2.8-1.1,3.9,0c0.1,0.1,0.1,0.1,0.2,0.2c0,0,0,0,0.1,0.1
	c0,0,0,0,0.1,0.1c0,0,0,0.1,0.1,0.1c0,0.1,0.1,0.1,0.1,0.2c0,0,0,0.1,0.1,0.1c0,0,0,0.1,0.1,0.1c0,0,0,0.1,0,0.1
	c0,0.1,0.1,0.1,0.1,0.2c0,0,0,0.1,0,0.1c0,0,0,0.1,0,0.1c0,0,0,0,0,0c0,0,0,0.1,0,0.1c0,0.1,0,0.1,0,0.2c0,0,0,0.1,0,0.1
	c0,0,0,0.1,0,0.1c0,0,0,0,0,0L75,92L68.2,85.2L68.2,85.2z M68.2,85.2l-3.9-3.9l-6.7-6.7l-1.6,1.6c0.1,0,0.1,0,0.2,0
	c0.1,0,0.2,0,0.2,0h0c0.1,0,0.2,0,0.3,0c0.1,0,0.2,0,0.3,0c0,0,0.1,0,0.1,0c0.1,0,0.2,0,0.3,0.1c0.1,0,0.2,0.1,0.3,0.1
	c0.2,0.1,0.3,0.2,0.5,0.3c0.1,0.1,0.2,0.1,0.2,0.2c0.1,0.1,0.1,0.1,0.2,0.2c0.1,0.1,0.1,0.1,0.2,0.2c0,0,0.1,0.1,0.1,0.1
	c0,0,0,0,0,0c0,0,0,0,0,0.1c0,0,0,0,0,0c0,0,0,0.1,0.1,0.1c0,0,0,0,0,0.1c0,0,0,0,0,0.1c0,0,0,0,0,0c0,0,0,0.1,0,0.1
	c0.1,0.2,0.1,0.3,0.2,0.5c0,0.1,0,0.1,0,0.2c0,0.1,0,0.1,0,0.2c0,0.1,0,0.1,0,0.2v0.5c0,0.1,0.1,0.1,0,0.2c0,0,0,0.1,0,0.1
	c0,0,0,0,0,0c0,0,0,0,0,0c0,0,0,0,0,0c0,0.1,0,0.1,0,0.2c0,0,0,0.1,0,0.1c0,0,0,0.1,0,0.1c0,0,0,0.1,0,0.1c0,0,0,0,0,0
	c0,0,0,0.1-0.1,0.1c0,0,0,0.1-0.1,0.1c0,0,0,0.1-0.1,0.1c0,0-0.1,0.1-0.1,0.1c0,0,0,0,0,0c0,0,0,0.1-0.1,0.1c0,0-0.1,0.1-0.1,0.1
	c0,0,0,0,0,0c0,0,0,0-0.1,0.1L57.2,82l5,5c0,0,0.1,0.1,0.1,0.1c0,0,0.1,0.1,0.1,0.1l5.5,5.5l1.7-1.7c1.1-1.1,2.8-1.1,3.9,0
	c0.1,0.1,0.1,0.1,0.2,0.2c0,0,0,0,0.1,0.1c0,0,0,0,0.1,0.1c0,0,0,0.1,0.1,0.1c0,0.1,0.1,0.1,0.1,0.2c0,0,0,0.1,0.1,0.1
	c0,0,0,0.1,0.1,0.1c0,0,0,0.1,0,0.1c0,0.1,0.1,0.1,0.1,0.2c0,0,0,0.1,0,0.1c0,0,0,0.1,0,0.1c0,0,0,0,0,0c0,0,0,0.1,0,0.1
	c0,0.1,0,0.1,0,0.2c0,0,0,0.1,0,0.1c0,0,0,0.1,0,0.1c0,0,0,0,0,0L75,92L68.2,85.2L68.2,85.2z M68.2,85.2l-3.9-3.9l-6.7-6.7l-1.6,1.6
	c0.1,0,0.1,0,0.2,0c0.1,0,0.2,0,0.2,0h0c0.1,0,0.2,0,0.3,0c0.1,0,0.2,0,0.3,0c0,0,0.1,0,0.1,0c0.1,0,0.2,0,0.3,0.1
	c0.1,0,0.2,0.1,0.3,0.1c0.2,0.1,0.3,0.2,0.5,0.3c0.1,0.1,0.2,0.1,0.2,0.2c0.1,0.1,0.1,0.1,0.2,0.2c0.1,0.1,0.1,0.1,0.2,0.2
	c0,0,0.1,0.1,0.1,0.1c0,0,0,0,0,0c0,0,0,0,0,0.1c0,0,0,0,0,0c0,0,0,0.1,0.1,0.1c0,0,0,0,0,0.1c0,0,0,0,0,0.1c0,0,0,0,0,0
	c0,0,0,0.1,0,0.1c0.1,0.2,0.1,0.3,0.2,0.5c0,0.1,0,0.1,0,0.2c0,0.1,0,0.1,0,0.2c0,0.1,0,0.1,0,0.2v0.5c0,0.1,0.1,0.1,0,0.2
	c0,0,0,0.1,0,0.1c0,0,0,0,0,0c0,0,0,0,0,0c0,0,0,0,0,0c0,0.1,0,0.1,0,0.2c0,0,0,0.1,0,0.1c0,0,0,0.1,0,0.1c0,0,0,0.1,0,0.1
	c0,0,0,0,0,0c0,0,0,0.1-0.1,0.1c0,0,0,0.1-0.1,0.1c0,0,0,0.1-0.1,0.1c0,0-0.1,0.1-0.1,0.1c0,0,0,0,0,0c0,0,0,0.1-0.1,0.1
	c0,0-0.1,0.1-0.1,0.1c0,0,0,0,0,0l3.3,3.1l3.9,3.7l3.8,3.6l0.1-0.1c1.1-1.1,2.8-1.1,3.9,0c0.1,0.1,0.1,0.1,0.2,0.2c0,0,0,0,0.1,0.1
	c0,0,0,0,0.1,0.1c0,0,0,0.1,0.1,0.1c0,0.1,0.1,0.1,0.1,0.2c0,0,0,0.1,0.1,0.1c0,0,0,0.1,0.1,0.1c0,0,0,0.1,0,0.1
	c0,0.1,0.1,0.1,0.1,0.2c0,0,0,0.1,0,0.1c0,0,0,0.1,0,0.1c0,0,0,0,0,0c0,0,0,0.1,0,0.1c0,0.1,0,0.1,0,0.2c0,0,0,0.1,0,0.1
	c0,0,0,0.1,0,0.1c0,0,0,0,0,0L75,92L68.2,85.2L68.2,85.2z M68.2,85.2l-3.9-3.9l-6.7-6.7l-1.6,1.6c0.1,0,0.1,0,0.2,0
	c0.1,0,0.2,0,0.2,0h0c0.1,0,0.2,0,0.3,0c0.1,0,0.2,0,0.3,0c0,0,0.1,0,0.1,0c0.1,0,0.2,0,0.3,0.1c0.1,0,0.2,0.1,0.3,0.1
	c0.2,0.1,0.3,0.2,0.5,0.3c0.1,0.1,0.2,0.1,0.2,0.2c0.1,0.1,0.1,0.1,0.2,0.2c0.1,0.1,0.1,0.1,0.2,0.2c0,0,0.1,0.1,0.1,0.1
	c0,0,0,0,0,0c0,0,0,0,0,0.1c0,0,0,0,0,0c0,0,0,0.1,0.1,0.1c0,0,0,0,0,0.1c0,0,0,0,0,0.1c0,0,0,0,0,0c0,0,0,0.1,0,0.1
	c0.1,0.2,0.1,0.3,0.2,0.5c0,0.1,0,0.1,0,0.2c0,0.1,0,0.1,0,0.2c0,0.1,0,0.1,0,0.2v0.5c0,0.1,0.1,0.1,0,0.2c0,0,0,0.1,0,0.1
	c0,0,0,0,0,0c0,0,0,0,0,0c0,0,0,0,0,0c0,0.1,0,0.1,0,0.2c0,0,0,0.1,0,0.1c0,0,0,0.1,0,0.1c0,0,0,0.1,0,0.1c0,0,0,0,0,0
	c0,0,0,0.1-0.1,0.1c0,0,0,0.1-0.1,0.1c0,0,0,0.1-0.1,0.1c0,0-0.1,0.1-0.1,0.1c0,0,0,0,0,0c0,0,0,0.1-0.1,0.1c0,0-0.1,0.1-0.1,0.1
	c0,0,0,0,0,0l3.3,3.1l3.9,3.7l3.8,3.6l0.1-0.1c1.1-1.1,2.8-1.1,3.9,0c0.1,0.1,0.1,0.1,0.2,0.2c0,0,0,0,0.1,0.1c0,0,0,0,0.1,0.1
	c0,0,0,0.1,0.1,0.1c0,0.1,0.1,0.1,0.1,0.2c0,0,0,0.1,0.1,0.1c0,0,0,0.1,0.1,0.1c0,0,0,0.1,0,0.1c0,0.1,0.1,0.1,0.1,0.2
	c0,0,0,0.1,0,0.1c0,0,0,0.1,0,0.1c0,0,0,0,0,0c0,0,0,0.1,0,0.1c0,0.1,0,0.1,0,0.2c0,0,0,0.1,0,0.1c0,0,0,0.1,0,0.1c0,0,0,0,0,0
	L75,92L68.2,85.2L68.2,85.2z M68.2,85.2l-3.9-3.9l-6.7-6.7l-1.6,1.6c0.1,0,0.1,0,0.2,0c0.1,0,0.2,0,0.2,0h0c0.1,0,0.2,0,0.3,0
	c0.1,0,0.2,0,0.3,0c0,0,0.1,0,0.1,0c0.1,0,0.2,0,0.3,0.1c0.1,0,0.2,0.1,0.3,0.1c0.2,0.1,0.3,0.2,0.5,0.3c0.1,0.1,0.2,0.1,0.2,0.2
	c0.1,0.1,0.1,0.1,0.2,0.2c0.1,0.1,0.1,0.1,0.2,0.2c0,0,0.1,0.1,0.1,0.1c0,0,0,0,0,0c0,0,0,0,0,0.1c0,0,0,0,0,0c0,0,0,0.1,0.1,0.1
	c0,0,0,0,0,0.1c0,0,0,0,0,0.1c0,0,0,0,0,0c0,0,0,0.1,0,0.1c0.1,0.2,0.1,0.3,0.2,0.5c0,0.1,0,0.1,0,0.2c0,0.1,0,0.1,0,0.2
	c0,0.1,0,0.1,0,0.2v0.5c0,0.1,0.1,0.1,0,0.2c0,0,0,0.1,0,0.1c0,0,0,0,0,0c0,0,0,0,0,0c0,0,0,0,0,0c0,0.1,0,0.1,0,0.2
	c0,0,0,0.1,0,0.1c0,0,0,0.1,0,0.1c0,0,0,0.1,0,0.1c0,0,0,0,0,0c0,0,0,0.1-0.1,0.1c0,0,0,0.1-0.1,0.1c0,0,0,0.1-0.1,0.1
	c0,0-0.1,0.1-0.1,0.1c0,0,0,0,0,0c0,0,0,0.1-0.1,0.1c0,0-0.1,0.1-0.1,0.1c0,0,0,0,0,0l3.3,3.1l3.9,3.7l3.8,3.6l0.1-0.1
	c1.1-1.1,2.8-1.1,3.9,0c0.1,0.1,0.1,0.1,0.2,0.2c0,0,0,0,0.1,0.1c0,0,0,0,0.1,0.1c0,0,0,0.1,0.1,0.1c0,0.1,0.1,0.1,0.1,0.2
	c0,0,0,0.1,0.1,0.1c0,0,0,0.1,0.1,0.1c0,0,0,0.1,0,0.1c0,0.1,0.1,0.1,0.1,0.2c0,0,0,0.1,0,0.1c0,0,0,0.1,0,0.1c0,0,0,0,0,0
	c0,0,0,0.1,0,0.1c0,0.1,0,0.1,0,0.2c0,0,0,0.1,0,0.1c0,0,0,0.1,0,0.1c0,0,0,0,0,0L75,92L68.2,85.2L68.2,85.2z M68.2,85.2l-3.9-3.9
	l-6.7-6.7l-1.6,1.6c0.1,0,0.1,0,0.2,0c0.1,0,0.2,0,0.2,0h0c0.1,0,0.2,0,0.3,0c0.1,0,0.2,0,0.3,0c0,0,0.1,0,0.1,0
	c0.1,0,0.2,0,0.3,0.1c0.1,0,0.2,0.1,0.3,0.1c0.2,0.1,0.3,0.2,0.5,0.3c0.1,0.1,0.2,0.1,0.2,0.2c0.1,0.1,0.1,0.1,0.2,0.2
	c0.1,0.1,0.1,0.1,0.2,0.2c0,0,0.1,0.1,0.1,0.1c0,0,0,0,0,0c0,0,0,0,0,0.1c0,0,0,0,0,0c0,0,0,0.1,0.1,0.1c0,0,0,0,0,0.1
	c0,0,0,0,0,0.1c0,0,0,0,0,0c0,0,0,0.1,0,0.1c0.1,0.2,0.1,0.3,0.2,0.5c0,0.1,0,0.1,0,0.2c0,0.1,0,0.1,0,0.2c0,0.1,0,0.1,0,0.2v0.5
	c0,0.1,0.1,0.1,0,0.2c0,0,0,0.1,0,0.1c0,0,0,0,0,0c0,0,0,0,0,0c0,0,0,0,0,0c0,0.1,0,0.1,0,0.2c0,0,0,0.1,0,0.1c0,0,0,0.1,0,0.1
	c0,0,0,0.1,0,0.1c0,0,0,0,0,0c0,0,0,0.1-0.1,0.1c0,0,0,0.1-0.1,0.1c0,0,0,0.1-0.1,0.1c0,0-0.1,0.1-0.1,0.1c0,0,0,0,0,0
	c0,0,0,0.1-0.1,0.1c0,0-0.1,0.1-0.1,0.1c0,0,0,0,0,0l3.3,3.1l3.9,3.7l3.8,3.6l0.1-0.1c1.1-1.1,2.8-1.1,3.9,0
	c0.1,0.1,0.1,0.1,0.2,0.2c0,0,0,0,0.1,0.1c0,0,0,0,0.1,0.1c0,0,0,0.1,0.1,0.1c0,0.1,0.1,0.1,0.1,0.2c0,0,0,0.1,0.1,0.1
	c0,0,0,0.1,0.1,0.1c0,0,0,0.1,0,0.1c0,0.1,0.1,0.1,0.1,0.2c0,0,0,0.1,0,0.1c0,0,0,0.1,0,0.1c0,0,0,0,0,0c0,0,0,0.1,0,0.1
	c0,0.1,0,0.1,0,0.2c0,0,0,0.1,0,0.1c0,0,0,0.1,0,0.1c0,0,0,0,0,0L75,92L68.2,85.2L68.2,85.2z M68.2,85.2l-3.9-3.9l-6.7-6.7l-1.6,1.6
	c0.1,0,0.1,0,0.2,0c0.1,0,0.2,0,0.2,0h0c0.1,0,0.2,0,0.3,0c0.1,0,0.2,0,0.3,0c0,0,0.1,0,0.1,0c0.1,0,0.2,0,0.3,0.1
	c0.1,0,0.2,0.1,0.3,0.1c0.2,0.1,0.3,0.2,0.5,0.3c0.1,0.1,0.2,0.1,0.2,0.2c0.1,0.1,0.1,0.1,0.2,0.2c0.1,0.1,0.1,0.1,0.2,0.2
	c0,0,0.1,0.1,0.1,0.1c0,0,0,0,0,0c0,0,0,0,0,0.1c0,0,0,0,0,0c0,0,0,0.1,0.1,0.1c0,0,0,0,0,0.1c0,0,0,0,0,0.1c0,0,0,0,0,0
	c0,0,0,0.1,0,0.1c0.1,0.2,0.1,0.3,0.2,0.5c0,0.1,0,0.1,0,0.2c0,0.1,0,0.1,0,0.2c0,0.1,0,0.1,0,0.2v0.5c0,0.1,0.1,0.1,0,0.2
	c0,0,0,0.1,0,0.1c0,0,0,0,0,0c0,0,0,0,0,0c0,0,0,0,0,0c0,0.1,0,0.1,0,0.2c0,0,0,0.1,0,0.1c0,0,0,0.1,0,0.1c0,0,0,0.1,0,0.1
	c0,0,0,0,0,0c0,0,0,0.1-0.1,0.1c0,0,0,0.1-0.1,0.1c0,0,0,0.1-0.1,0.1c0,0-0.1,0.1-0.1,0.1c0,0,0,0,0,0c0,0,0,0.1-0.1,0.1
	c0,0-0.1,0.1-0.1,0.1c0,0,0,0,0,0l3.3,3.1l3.9,3.7l3.8,3.6l0.1-0.1c1.1-1.1,2.8-1.1,3.9,0c0.1,0.1,0.1,0.1,0.2,0.2c0,0,0,0,0.1,0.1
	c0,0,0,0,0.1,0.1c0,0,0,0.1,0.1,0.1c0,0.1,0.1,0.1,0.1,0.2c0,0,0,0.1,0.1,0.1c0,0,0,0.1,0.1,0.1c0,0,0,0.1,0,0.1
	c0,0.1,0.1,0.1,0.1,0.2c0,0,0,0.1,0,0.1c0,0,0,0.1,0,0.1c0,0,0,0,0,0c0,0,0,0.1,0,0.1c0,0.1,0,0.1,0,0.2c0,0,0,0.1,0,0.1
	c0,0,0,0.1,0,0.1c0,0,0,0,0,0L75,92L68.2,85.2L68.2,85.2z M68.2,85.2l-3.9-3.9l-6.7-6.7l-1.6,1.6c0.1,0,0.1,0,0.2,0
	c0.1,0,0.2,0,0.2,0h0c0.1,0,0.2,0,0.3,0c0.1,0,0.2,0,0.3,0c0,0,0.1,0,0.1,0c0.1,0,0.2,0,0.3,0.1c0.1,0,0.2,0.1,0.3,0.1
	c0.2,0.1,0.3,0.2,0.5,0.3c0.1,0.1,0.2,0.1,0.2,0.2c0.1,0.1,0.1,0.1,0.2,0.2c0.1,0.1,0.1,0.1,0.2,0.2c0,0,0.1,0.1,0.1,0.1
	c0,0,0,0,0,0c0,0,0,0,0,0.1c0,0,0,0,0,0c0,0,0,0.1,0.1,0.1c0,0,0,0,0,0.1c0,0,0,0,0,0.1c0,0,0,0,0,0c0,0,0,0.1,0,0.1
	c0.1,0.2,0.1,0.3,0.2,0.5c0,0.1,0,0.1,0,0.2c0,0.1,0,0.1,0,0.2c0,0.1,0,0.1,0,0.2v0.5c0,0.1,0.1,0.1,0,0.2c0,0,0,0.1,0,0.1
	c0,0,0,0,0,0c0,0,0,0,0,0c0,0,0,0,0,0c0,0.1,0,0.1,0,0.2c0,0,0,0.1,0,0.1c0,0,0,0.1,0,0.1c0,0,0,0.1,0,0.1c0,0,0,0,0,0
	c0,0,0,0.1-0.1,0.1c0,0,0,0.1-0.1,0.1c0,0,0,0.1-0.1,0.1c0,0-0.1,0.1-0.1,0.1c0,0,0,0,0,0c0,0,0,0.1-0.1,0.1c0,0-0.1,0.1-0.1,0.1
	c0,0,0,0,0,0l3.3,3.1l3.9,3.7l3.8,3.6l0.1-0.1c1.1-1.1,2.8-1.1,3.9,0c0.1,0.1,0.1,0.1,0.2,0.2c0,0,0,0,0.1,0.1c0,0,0,0,0.1,0.1
	c0,0,0,0.1,0.1,0.1c0,0.1,0.1,0.1,0.1,0.2c0,0,0,0.1,0.1,0.1c0,0,0,0.1,0.1,0.1c0,0,0,0.1,0,0.1c0,0.1,0.1,0.1,0.1,0.2
	c0,0,0,0.1,0,0.1c0,0,0,0.1,0,0.1c0,0,0,0,0,0c0,0,0,0.1,0,0.1c0,0.1,0,0.1,0,0.2c0,0,0,0.1,0,0.1c0,0,0,0.1,0,0.1c0,0,0,0,0,0
	L75,92L68.2,85.2L68.2,85.2z M68.2,85.2l-3.9-3.9l-6.7-6.7l-1.6,1.6c0.1,0,0.1,0,0.2,0c0.1,0,0.2,0,0.2,0h0c0.1,0,0.2,0,0.3,0
	c0.1,0,0.2,0,0.3,0c0,0,0.1,0,0.1,0c0.1,0,0.2,0,0.3,0.1c0.1,0,0.2,0.1,0.3,0.1c0.2,0.1,0.3,0.2,0.5,0.3c0.1,0.1,0.2,0.1,0.2,0.2
	c0.1,0.1,0.1,0.1,0.2,0.2c0.1,0.1,0.1,0.1,0.2,0.2c0,0,0.1,0.1,0.1,0.1c0,0,0,0,0,0c0,0,0,0,0,0.1c0,0,0,0,0,0c0,0,0,0.1,0.1,0.1
	c0,0,0,0,0,0.1c0,0,0,0,0,0.1c0,0,0,0,0,0c0,0,0,0.1,0,0.1c0.1,0.2,0.1,0.3,0.2,0.5c0,0.1,0,0.1,0,0.2c0,0.1,0,0.1,0,0.2
	c0,0.1,0,0.1,0,0.2v0.5c0,0.1,0.1,0.1,0,0.2c0,0,0,0.1,0,0.1c0,0,0,0,0,0c0,0,0,0,0,0c0,0,0,0,0,0c0,0.1,0,0.1,0,0.2
	c0,0,0,0.1,0,0.1c0,0,0,0.1,0,0.1c0,0,0,0.1,0,0.1c0,0,0,0,0,0c0,0,0,0.1-0.1,0.1c0,0,0,0.1-0.1,0.1c0,0,0,0.1-0.1,0.1
	c0,0-0.1,0.1-0.1,0.1c0,0,0,0,0,0c0,0,0,0.1-0.1,0.1c0,0-0.1,0.1-0.1,0.1c0,0,0,0,0,0l3.3,3.1l3.9,3.7l3.8,3.6l0.1-0.1
	c1.1-1.1,2.8-1.1,3.9,0c0.1,0.1,0.1,0.1,0.2,0.2c0,0,0,0,0.1,0.1c0,0,0,0,0.1,0.1c0,0,0,0.1,0.1,0.1c0,0.1,0.1,0.1,0.1,0.2
	c0,0,0,0.1,0.1,0.1c0,0,0,0.1,0.1,0.1c0,0,0,0.1,0,0.1c0,0.1,0.1,0.1,0.1,0.2c0,0,0,0.1,0,0.1c0,0,0,0.1,0,0.1c0,0,0,0,0,0
	c0,0,0,0.1,0,0.1c0,0.1,0,0.1,0,0.2c0,0,0,0.1,0,0.1c0,0,0,0.1,0,0.1c0,0,0,0,0,0L75,92L68.2,85.2L68.2,85.2z M68.2,85.2l-3.9-3.9
	l-6.7-6.7l-1.6,1.6c0.1,0,0.1,0,0.2,0c0.1,0,0.2,0,0.2,0h0c0.1,0,0.2,0,0.3,0c0.1,0,0.2,0,0.3,0c0,0,0.1,0,0.1,0
	c0.1,0,0.2,0,0.3,0.1c0.1,0,0.2,0.1,0.3,0.1c0.2,0.1,0.3,0.2,0.5,0.3c0.1,0.1,0.2,0.1,0.2,0.2c0.1,0.1,0.1,0.1,0.2,0.2
	c0.1,0.1,0.1,0.1,0.2,0.2c0,0,0.1,0.1,0.1,0.1c0,0,0,0,0,0c0,0,0,0,0,0.1c0,0,0,0,0,0c0,0,0,0.1,0.1,0.1c0,0,0,0,0,0.1
	c0,0,0,0,0,0.1c0,0,0,0,0,0c0,0,0,0.1,0,0.1c0.1,0.2,0.1,0.3,0.2,0.5c0,0.1,0,0.1,0,0.2c0,0.1,0,0.1,0,0.2c0,0.1,0,0.1,0,0.2v0.5
	c0,0.1,0.1,0.1,0,0.2c0,0,0,0.1,0,0.1c0,0,0,0,0,0c0,0,0,0,0,0c0,0,0,0,0,0c0,0.1,0,0.1,0,0.2c0,0,0,0.1,0,0.1c0,0,0,0.1,0,0.1
	c0,0,0,0.1,0,0.1c0,0,0,0,0,0c0,0,0,0.1-0.1,0.1c0,0,0,0.1-0.1,0.1c0,0,0,0.1-0.1,0.1c0,0-0.1,0.1-0.1,0.1c0,0,0,0,0,0
	c0,0,0,0.1-0.1,0.1c0,0-0.1,0.1-0.1,0.1c0,0,0,0,0,0l3.3,3.1l3.9,3.7l3.8,3.6l0.1-0.1c1.1-1.1,2.8-1.1,3.9,0
	c0.1,0.1,0.1,0.1,0.2,0.2c0,0,0,0,0.1,0.1c0,0,0,0,0.1,0.1c0,0,0,0.1,0.1,0.1c0,0.1,0.1,0.1,0.1,0.2c0,0,0,0.1,0.1,0.1
	c0,0,0,0.1,0.1,0.1c0,0,0,0.1,0,0.1c0,0.1,0.1,0.1,0.1,0.2c0,0,0,0.1,0,0.1c0,0,0,0.1,0,0.1c0,0,0,0,0,0c0,0,0,0.1,0,0.1
	c0,0.1,0,0.1,0,0.2c0,0,0,0.1,0,0.1c0,0,0,0.1,0,0.1c0,0,0,0,0,0L75,92L68.2,85.2L68.2,85.2z M68.2,85.2l-3.9-3.9l-6.7-6.7l-1.6,1.6
	c0.1,0,0.1,0,0.2,0c0.1,0,0.2,0,0.2,0h0c0.1,0,0.2,0,0.3,0c0.1,0,0.2,0,0.3,0c0,0,0.1,0,0.1,0c0.1,0,0.2,0,0.3,0.1
	c0.1,0,0.2,0.1,0.3,0.1c0.2,0.1,0.3,0.2,0.5,0.3c0.1,0.1,0.2,0.1,0.2,0.2c0.1,0.1,0.1,0.1,0.2,0.2c0.1,0.1,0.1,0.1,0.2,0.2
	c0,0,0.1,0.1,0.1,0.1c0,0,0,0,0,0c0,0,0,0,0,0.1c0,0,0,0,0,0c0,0,0,0.1,0.1,0.1c0,0,0,0,0,0.1c0,0,0,0,0,0.1c0,0,0,0,0,0
	c0,0,0,0.1,0,0.1c0.1,0.2,0.1,0.3,0.2,0.5c0,0.1,0,0.1,0,0.2c0,0.1,0,0.1,0,0.2c0,0.1,0,0.1,0,0.2v0.5c0,0.1,0.1,0.1,0,0.2
	c0,0,0,0.1,0,0.1c0,0,0,0,0,0c0,0,0,0,0,0c0,0,0,0,0,0c0,0.1,0,0.1,0,0.2c0,0,0,0.1,0,0.1c0,0,0,0.1,0,0.1c0,0,0,0.1,0,0.1
	c0,0,0,0,0,0c0,0,0,0.1-0.1,0.1c0,0,0,0.1-0.1,0.1c0,0,0,0.1-0.1,0.1c0,0-0.1,0.1-0.1,0.1c0,0,0,0,0,0c0,0,0,0.1-0.1,0.1
	c0,0-0.1,0.1-0.1,0.1c0,0,0,0,0,0l3.3,3.1l3.9,3.7l3.8,3.6l0.1-0.1c1.1-1.1,2.8-1.1,3.9,0c0.1,0.1,0.1,0.1,0.2,0.2c0,0,0,0,0.1,0.1
	c0,0,0,0,0.1,0.1c0,0,0,0.1,0.1,0.1c0,0.1,0.1,0.1,0.1,0.2c0,0,0,0.1,0.1,0.1c0,0,0,0.1,0.1,0.1c0,0,0,0.1,0,0.1
	c0,0.1,0.1,0.1,0.1,0.2c0,0,0,0.1,0,0.1c0,0,0,0.1,0,0.1c0,0,0,0,0,0c0,0,0,0.1,0,0.1c0,0.1,0,0.1,0,0.2c0,0,0,0.1,0,0.1
	c0,0,0,0.1,0,0.1c0,0,0,0,0,0L75,92L68.2,85.2L68.2,85.2z M68.2,85.2l-3.9-3.9l-6.7-6.7l-1.6,1.6c0.1,0,0.1,0,0.2,0
	c0.1,0,0.2,0,0.2,0h0c0.1,0,0.2,0,0.3,0c0.1,0,0.2,0,0.3,0c0,0,0.1,0,0.1,0c0.1,0,0.2,0,0.3,0.1c0.1,0,0.2,0.1,0.3,0.1
	c0.2,0.1,0.3,0.2,0.5,0.3c0.1,0.1,0.2,0.1,0.2,0.2c0.1,0.1,0.1,0.1,0.2,0.2c0.1,0.1,0.1,0.1,0.2,0.2c0,0,0.1,0.1,0.1,0.1
	c0,0,0,0,0,0c0,0,0,0,0,0.1c0,0,0,0,0,0c0,0,0,0.1,0.1,0.1c0,0,0,0,0,0.1c0,0,0,0,0,0.1c0,0,0,0,0,0c0,0,0,0.1,0,0.1
	c0.1,0.2,0.1,0.3,0.2,0.5c0,0.1,0,0.1,0,0.2c0,0.1,0,0.1,0,0.2c0,0.1,0,0.1,0,0.2v0.5c0,0.1,0.1,0.1,0,0.2c0,0,0,0.1,0,0.1
	c0,0,0,0,0,0c0,0,0,0,0,0c0,0,0,0,0,0c0,0.1,0,0.1,0,0.2c0,0,0,0.1,0,0.1c0,0,0,0.1,0,0.1c0,0,0,0.1,0,0.1c0,0,0,0,0,0
	c0,0,0,0.1-0.1,0.1c0,0,0,0.1-0.1,0.1c0,0,0,0.1-0.1,0.1c0,0-0.1,0.1-0.1,0.1c0,0,0,0,0,0c0,0,0,0.1-0.1,0.1c0,0-0.1,0.1-0.1,0.1
	c0,0,0,0,0,0l3.3,3.1l3.9,3.7l3.8,3.6l0.1-0.1c1.1-1.1,2.8-1.1,3.9,0c0.1,0.1,0.1,0.1,0.2,0.2c0,0,0,0,0.1,0.1c0,0,0,0,0.1,0.1
	c0,0,0,0.1,0.1,0.1c0,0.1,0.1,0.1,0.1,0.2c0,0,0,0.1,0.1,0.1c0,0,0,0.1,0.1,0.1c0,0,0,0.1,0,0.1c0,0.1,0.1,0.1,0.1,0.2
	c0,0,0,0.1,0,0.1c0,0,0,0.1,0,0.1c0,0,0,0,0,0c0,0,0,0.1,0,0.1c0,0.1,0,0.1,0,0.2c0,0,0,0.1,0,0.1c0,0,0,0.1,0,0.1c0,0,0,0,0,0
	L75,92L68.2,85.2L68.2,85.2z M141.7,116.8l-45-45l-3.9-3.9L82.1,57.2l-3.9-3.9L33.2,8.3c-0.5-0.5-1.2-0.8-2-0.8
	c-0.7,0-1.4,0.3-2,0.8L8.3,29.3c-1.1,1.1-1.1,2.8,0,3.9l11,11c0,0,0.1,0.1,0.1,0.1c0,0,0,0,0.1,0.1L30,54.9c0,0,0.1,0.1,0.1,0.1
	c0,0,0,0,0.1,0l10.7,10.7l10.6,10.6c0,0,0.1,0.1,0.1,0.1c0,0,0.1,0.1,0.1,0.1l1.6,1.6l2,2l2,2l5,5c0,0,0.1,0.1,0.1,0.1
	c0,0,0.1,0.1,0.1,0.1l5.5,5.5l2,2l2,2l1.2,1.2c0,0,0,0,0,0c0,0,0.1,0.1,0.1,0.1l10.5,10.5c0,0,0.1,0.1,0.1,0.1c0,0,0,0,0,0
	l21.4,21.4c0,0,0,0,0,0c0,0,0,0,0.1,0l11.5,11.5c0.5,0.5,1.2,0.8,2,0.8s1.4-0.3,2-0.8l20.9-20.9
	C142.8,119.7,142.8,117.9,141.7,116.8z M118.8,135.8l-7.6-7.6l-3.9-3.9l-6.8-6.8l-3.9-3.9l-6.8-6.8l-3.9-3.9L79,96L75,92l-6.9-6.9
	l-3.9-3.9l-6.7-6.7l-3.9-3.9l-6.8-6.8l-3.9-3.9L36,53l-3.9-3.9l-6.8-6.8l-3.9-3.9l-7.1-7.1l17-17l104.6,104.6L118.8,135.8z
	 M68.2,85.2l-3.9-3.9l-6.7-6.7l-1.6,1.6c0.1,0,0.1,0,0.2,0c0.1,0,0.2,0,0.2,0h0c0.1,0,0.2,0,0.3,0c0.1,0,0.2,0,0.3,0
	c0,0,0.1,0,0.1,0c0.1,0,0.2,0,0.3,0.1c0.1,0,0.2,0.1,0.3,0.1c0.2,0.1,0.3,0.2,0.5,0.3c0.1,0.1,0.2,0.1,0.2,0.2
	c0.1,0.1,0.1,0.1,0.2,0.2c0.1,0.1,0.1,0.1,0.2,0.2c0,0,0.1,0.1,0.1,0.1c0,0,0,0,0,0c0,0,0,0,0,0.1c0,0,0,0,0,0c0,0,0,0.1,0.1,0.1
	c0,0,0,0,0,0.1c0,0,0,0,0,0.1c0,0,0,0,0,0c0,0,0,0.1,0,0.1c0.1,0.2,0.1,0.3,0.2,0.5c0,0.1,0,0.1,0,0.2c0,0.1,0,0.1,0,0.2
	c0,0.1,0,0.1,0,0.2v0.5c0,0.1,0.1,0.1,0,0.2c0,0,0,0.1,0,0.1c0,0,0,0,0,0c0,0,0,0,0,0c0,0,0,0,0,0c0,0.1,0,0.1,0,0.2
	c0,0,0,0.1,0,0.1c0,0,0,0.1,0,0.1c0,0,0,0.1,0,0.1c0,0,0,0,0,0c0,0,0,0.1-0.1,0.1c0,0,0,0.1-0.1,0.1c0,0,0,0.1-0.1,0.1
	c0,0-0.1,0.1-0.1,0.1c0,0,0,0,0,0c0,0,0,0.1-0.1,0.1c0,0-0.1,0.1-0.1,0.1c0,0,0,0,0,0l3.3,3.1l3.9,3.7l3.8,3.6l0.1-0.1
	c1.1-1.1,2.8-1.1,3.9,0c0.1,0.1,0.1,0.1,0.2,0.2c0,0,0,0,0.1,0.1c0,0,0,0,0.1,0.1c0,0,0,0.1,0.1,0.1c0,0.1,0.1,0.1,0.1,0.2
	c0,0,0,0.1,0.1,0.1c0,0,0,0.1,0.1,0.1c0,0,0,0.1,0,0.1c0,0.1,0.1,0.1,0.1,0.2c0,0,0,0.1,0,0.1c0,0,0,0.1,0,0.1c0,0,0,0,0,0
	c0,0,0,0.1,0,0.1c0,0.1,0,0.1,0,0.2c0,0,0,0.1,0,0.1c0,0,0,0.1,0,0.1c0,0,0,0,0,0L75,92L68.2,85.2L68.2,85.2z M68.2,85.2l-3.9-3.9
	l-6.7-6.7l-1.6,1.6c0.1,0,0.1,0,0.2,0c0.1,0,0.2,0,0.2,0h0c0.1,0,0.2,0,0.3,0c0.1,0,0.2,0,0.3,0c0,0,0.1,0,0.1,0
	c0.1,0,0.2,0,0.3,0.1c0.1,0,0.2,0.1,0.3,0.1c0.2,0.1,0.3,0.2,0.5,0.3c0.1,0.1,0.2,0.1,0.2,0.2c0.1,0.1,0.1,0.1,0.2,0.2
	c0.1,0.1,0.1,0.1,0.2,0.2c0,0,0.1,0.1,0.1,0.1c0,0,0,0,0,0c0,0,0,0,0,0.1c0,0,0,0,0,0c0,0,0,0.1,0.1,0.1c0,0,0,0,0,0.1
	c0,0,0,0,0,0.1c0,0,0,0,0,0c0,0,0,0.1,0,0.1c0.1,0.2,0.1,0.3,0.2,0.5c0,0.1,0,0.1,0,0.2c0,0.1,0,0.1,0,0.2c0,0.1,0,0.1,0,0.2v0.5
	c0,0.1,0.1,0.1,0,0.2c0,0,0,0.1,0,0.1c0,0,0,0,0,0c0,0,0,0,0,0c0,0,0,0,0,0c0,0.1,0,0.1,0,0.2c0,0,0,0.1,0,0.1c0,0,0,0.1,0,0.1
	c0,0,0,0.1,0,0.1c0,0,0,0,0,0c0,0,0,0.1-0.1,0.1c0,0,0,0.1-0.1,0.1c0,0,0,0.1-0.1,0.1c0,0-0.1,0.1-0.1,0.1c0,0,0,0,0,0
	c0,0,0,0.1-0.1,0.1c0,0-0.1,0.1-0.1,0.1c0,0,0,0,0,0l3.3,3.1l3.9,3.7l3.8,3.6l0.1-0.1c1.1-1.1,2.8-1.1,3.9,0
	c0.1,0.1,0.1,0.1,0.2,0.2c0,0,0,0,0.1,0.1c0,0,0,0,0.1,0.1c0,0,0,0.1,0.1,0.1c0,0.1,0.1,0.1,0.1,0.2c0,0,0,0.1,0.1,0.1
	c0,0,0,0.1,0.1,0.1c0,0,0,0.1,0,0.1c0,0.1,0.1,0.1,0.1,0.2c0,0,0,0.1,0,0.1c0,0,0,0.1,0,0.1c0,0,0,0,0,0c0,0,0,0.1,0,0.1
	c0,0.1,0,0.1,0,0.2c0,0,0,0.1,0,0.1c0,0,0,0.1,0,0.1c0,0,0,0,0,0L75,92L68.2,85.2L68.2,85.2z M68.2,85.2l-3.9-3.9l-6.7-6.7l-1.6,1.6
	c0.1,0,0.1,0,0.2,0c0.1,0,0.2,0,0.2,0h0c0.1,0,0.2,0,0.3,0c0.1,0,0.2,0,0.3,0c0,0,0.1,0,0.1,0c0.1,0,0.2,0,0.3,0.1
	c0.1,0,0.2,0.1,0.3,0.1c0.2,0.1,0.3,0.2,0.5,0.3c0.1,0.1,0.2,0.1,0.2,0.2c0.1,0.1,0.1,0.1,0.2,0.2c0.1,0.1,0.1,0.1,0.2,0.2
	c0,0,0.1,0.1,0.1,0.1c0,0,0,0,0,0c0,0,0,0,0,0.1c0,0,0,0,0,0c0,0,0,0.1,0.1,0.1c0,0,0,0,0,0.1c0,0,0,0,0,0.1c0,0,0,0,0,0
	c0,0,0,0.1,0,0.1c0.1,0.2,0.1,0.3,0.2,0.5c0,0.1,0,0.1,0,0.2c0,0.1,0,0.1,0,0.2c0,0.1,0,0.1,0,0.2v0.5c0,0.1,0.1,0.1,0,0.2
	c0,0,0,0.1,0,0.1c0,0,0,0,0,0c0,0,0,0,0,0c0,0,0,0,0,0c0,0.1,0,0.1,0,0.2c0,0,0,0.1,0,0.1c0,0,0,0.1,0,0.1c0,0,0,0.1,0,0.1
	c0,0,0,0,0,0c0,0,0,0.1-0.1,0.1c0,0,0,0.1-0.1,0.1c0,0,0,0.1-0.1,0.1c0,0-0.1,0.1-0.1,0.1c0,0,0,0,0,0c0,0,0,0.1-0.1,0.1
	c0,0-0.1,0.1-0.1,0.1c0,0,0,0,0,0l3.3,3.1l3.9,3.7l3.8,3.6l0.1-0.1c1.1-1.1,2.8-1.1,3.9,0c0.1,0.1,0.1,0.1,0.2,0.2c0,0,0,0,0.1,0.1
	c0,0,0,0,0.1,0.1c0,0,0,0.1,0.1,0.1c0,0.1,0.1,0.1,0.1,0.2c0,0,0,0.1,0.1,0.1c0,0,0,0.1,0.1,0.1c0,0,0,0.1,0,0.1
	c0,0.1,0.1,0.1,0.1,0.2c0,0,0,0.1,0,0.1c0,0,0,0.1,0,0.1c0,0,0,0,0,0c0,0,0,0.1,0,0.1c0,0.1,0,0.1,0,0.2c0,0,0,0.1,0,0.1
	c0,0,0,0.1,0,0.1c0,0,0,0,0,0L75,92L68.2,85.2L68.2,85.2z M68.2,85.2l-3.9-3.9l-6.7-6.7l-1.6,1.6c0.1,0,0.1,0,0.2,0
	c0.1,0,0.2,0,0.2,0h0c0.1,0,0.2,0,0.3,0c0.1,0,0.2,0,0.3,0c0,0,0.1,0,0.1,0c0.1,0,0.2,0,0.3,0.1c0.1,0,0.2,0.1,0.3,0.1
	c0.2,0.1,0.3,0.2,0.5,0.3c0.1,0.1,0.2,0.1,0.2,0.2c0.1,0.1,0.1,0.1,0.2,0.2c0.1,0.1,0.1,0.1,0.2,0.2c0,0,0.1,0.1,0.1,0.1
	c0,0,0,0,0,0c0,0,0,0,0,0.1c0,0,0,0,0,0c0,0,0,0.1,0.1,0.1c0,0,0,0,0,0.1c0,0,0,0,0,0.1c0,0,0,0,0,0c0,0,0,0.1,0,0.1
	c0.1,0.2,0.1,0.3,0.2,0.5c0,0.1,0,0.1,0,0.2c0,0.1,0,0.1,0,0.2c0,0.1,0,0.1,0,0.2v0.5c0,0.1,0.1,0.1,0,0.2c0,0,0,0.1,0,0.1
	c0,0,0,0,0,0c0,0,0,0,0,0c0,0,0,0,0,0c0,0.1,0,0.1,0,0.2c0,0,0,0.1,0,0.1c0,0,0,0.1,0,0.1c0,0,0,0.1,0,0.1c0,0,0,0,0,0
	c0,0,0,0.1-0.1,0.1c0,0,0,0.1-0.1,0.1c0,0,0,0.1-0.1,0.1c0,0-0.1,0.1-0.1,0.1c0,0,0,0,0,0c0,0,0,0.1-0.1,0.1c0,0-0.1,0.1-0.1,0.1
	c0,0,0,0,0,0l3.3,3.1l3.9,3.7l3.8,3.6l0.1-0.1c1.1-1.1,2.8-1.1,3.9,0c0.1,0.1,0.1,0.1,0.2,0.2c0,0,0,0,0.1,0.1c0,0,0,0,0.1,0.1
	c0,0,0,0.1,0.1,0.1c0,0.1,0.1,0.1,0.1,0.2c0,0,0,0.1,0.1,0.1c0,0,0,0.1,0.1,0.1c0,0,0,0.1,0,0.1c0,0.1,0.1,0.1,0.1,0.2
	c0,0,0,0.1,0,0.1c0,0,0,0.1,0,0.1c0,0,0,0,0,0c0,0,0,0.1,0,0.1c0,0.1,0,0.1,0,0.2c0,0,0,0.1,0,0.1c0,0,0,0.1,0,0.1c0,0,0,0,0,0
	L75,92L68.2,85.2L68.2,85.2z M68.2,85.2l-3.9-3.9l-6.7-6.7l-1.6,1.6c0.1,0,0.1,0,0.2,0c0.1,0,0.2,0,0.2,0h0c0.1,0,0.2,0,0.3,0
	c0.1,0,0.2,0,0.3,0c0,0,0.1,0,0.1,0c0.1,0,0.2,0,0.3,0.1c0.1,0,0.2,0.1,0.3,0.1c0.2,0.1,0.3,0.2,0.5,0.3c0.1,0.1,0.2,0.1,0.2,0.2
	c0.1,0.1,0.1,0.1,0.2,0.2c0.1,0.1,0.1,0.1,0.2,0.2c0,0,0.1,0.1,0.1,0.1c0,0,0,0,0,0c0,0,0,0,0,0.1c0,0,0,0,0,0c0,0,0,0.1,0.1,0.1
	c0,0,0,0,0,0.1c0,0,0,0,0,0.1c0,0,0,0,0,0c0,0,0,0.1,0,0.1c0.1,0.2,0.1,0.3,0.2,0.5c0,0.1,0,0.1,0,0.2c0,0.1,0,0.1,0,0.2
	c0,0.1,0,0.1,0,0.2v0.5c0,0.1,0.1,0.1,0,0.2c0,0,0,0.1,0,0.1c0,0,0,0,0,0c0,0,0,0,0,0c0,0,0,0,0,0c0,0.1,0,0.1,0,0.2
	c0,0,0,0.1,0,0.1c0,0,0,0.1,0,0.1c0,0,0,0.1,0,0.1c0,0,0,0,0,0c0,0,0,0.1-0.1,0.1c0,0,0,0.1-0.1,0.1c0,0,0,0.1-0.1,0.1
	c0,0-0.1,0.1-0.1,0.1c0,0,0,0,0,0c0,0,0,0.1-0.1,0.1c0,0-0.1,0.1-0.1,0.1c0,0,0,0,0,0l3.3,3.1l3.9,3.7l3.8,3.6l0.1-0.1
	c1.1-1.1,2.8-1.1,3.9,0c0.1,0.1,0.1,0.1,0.2,0.2c0,0,0,0,0.1,0.1c0,0,0,0,0.1,0.1c0,0,0,0.1,0.1,0.1c0,0.1,0.1,0.1,0.1,0.2
	c0,0,0,0.1,0.1,0.1c0,0,0,0.1,0.1,0.1c0,0,0,0.1,0,0.1c0,0.1,0.1,0.1,0.1,0.2c0,0,0,0.1,0,0.1c0,0,0,0.1,0,0.1c0,0,0,0,0,0
	c0,0,0,0.1,0,0.1c0,0.1,0,0.1,0,0.2c0,0,0,0.1,0,0.1c0,0,0,0.1,0,0.1c0,0,0,0,0,0L75,92L68.2,85.2L68.2,85.2z M68.2,85.2l-3.9-3.9
	l-6.7-6.7l-1.6,1.6c0.1,0,0.1,0,0.2,0c0.1,0,0.2,0,0.2,0h0c0.1,0,0.2,0,0.3,0c0.1,0,0.2,0,0.3,0c0,0,0.1,0,0.1,0
	c0.1,0,0.2,0,0.3,0.1c0.1,0,0.2,0.1,0.3,0.1c0.2,0.1,0.3,0.2,0.5,0.3c0.1,0.1,0.2,0.1,0.2,0.2c0.1,0.1,0.1,0.1,0.2,0.2
	c0.1,0.1,0.1,0.1,0.2,0.2c0,0,0.1,0.1,0.1,0.1c0,0,0,0,0,0c0,0,0,0,0,0.1c0,0,0,0,0,0c0,0,0,0.1,0.1,0.1c0,0,0,0,0,0.1
	c0,0,0,0,0,0.1c0,0,0,0,0,0c0,0,0,0.1,0,0.1c0.1,0.2,0.1,0.3,0.2,0.5c0,0.1,0,0.1,0,0.2c0,0.1,0,0.1,0,0.2c0,0.1,0,0.1,0,0.2v0.5
	c0,0.1,0.1,0.1,0,0.2c0,0,0,0.1,0,0.1c0,0,0,0,0,0c0,0,0,0,0,0c0,0,0,0,0,0c0,0.1,0,0.1,0,0.2c0,0,0,0.1,0,0.1c0,0,0,0.1,0,0.1
	c0,0,0,0.1,0,0.1c0,0,0,0,0,0c0,0,0,0.1-0.1,0.1c0,0,0,0.1-0.1,0.1c0,0,0,0.1-0.1,0.1c0,0-0.1,0.1-0.1,0.1c0,0,0,0,0,0
	c0,0,0,0.1-0.1,0.1c0,0-0.1,0.1-0.1,0.1c0,0,0,0,0,0l3.3,3.1l3.9,3.7l3.8,3.6l0.1-0.1c1.1-1.1,2.8-1.1,3.9,0
	c0.1,0.1,0.1,0.1,0.2,0.2c0,0,0,0,0.1,0.1c0,0,0,0,0.1,0.1c0,0,0,0.1,0.1,0.1c0,0.1,0.1,0.1,0.1,0.2c0,0,0,0.1,0.1,0.1
	c0,0,0,0.1,0.1,0.1c0,0,0,0.1,0,0.1c0,0.1,0.1,0.1,0.1,0.2c0,0,0,0.1,0,0.1c0,0,0,0.1,0,0.1c0,0,0,0,0,0c0,0,0,0.1,0,0.1
	c0,0.1,0,0.1,0,0.2c0,0,0,0.1,0,0.1c0,0,0,0.1,0,0.1c0,0,0,0,0,0L75,92L68.2,85.2L68.2,85.2z M68.2,85.2l-3.9-3.9l-6.7-6.7l-1.6,1.6
	c0.1,0,0.1,0,0.2,0c0.1,0,0.2,0,0.2,0h0c0.1,0,0.2,0,0.3,0c0.1,0,0.2,0,0.3,0c0,0,0.1,0,0.1,0c0.1,0,0.2,0,0.3,0.1
	c0.1,0,0.2,0.1,0.3,0.1c0.2,0.1,0.3,0.2,0.5,0.3c0.1,0.1,0.2,0.1,0.2,0.2c0.1,0.1,0.1,0.1,0.2,0.2c0.1,0.1,0.1,0.1,0.2,0.2
	c0,0,0.1,0.1,0.1,0.1c0,0,0,0,0,0c0,0,0,0,0,0.1c0,0,0,0,0,0c0,0,0,0.1,0.1,0.1c0,0,0,0,0,0.1c0,0,0,0,0,0.1c0,0,0,0,0,0
	c0,0,0,0.1,0,0.1c0.1,0.2,0.1,0.3,0.2,0.5c0,0.1,0,0.1,0,0.2c0,0.1,0,0.1,0,0.2c0,0.1,0,0.1,0,0.2v0.5c0,0.1,0.1,0.1,0,0.2
	c0,0,0,0.1,0,0.1c0,0,0,0,0,0c0,0,0,0,0,0c0,0,0,0,0,0c0,0.1,0,0.1,0,0.2c0,0,0,0.1,0,0.1c0,0,0,0.1,0,0.1c0,0,0,0.1,0,0.1
	c0,0,0,0,0,0c0,0,0,0.1-0.1,0.1c0,0,0,0.1-0.1,0.1c0,0,0,0.1-0.1,0.1c0,0-0.1,0.1-0.1,0.1c0,0,0,0,0,0c0,0,0,0.1-0.1,0.1
	c0,0-0.1,0.1-0.1,0.1c0,0,0,0,0,0l3.3,3.1l3.9,3.7l3.8,3.6l0.1-0.1c1.1-1.1,2.8-1.1,3.9,0c0.1,0.1,0.1,0.1,0.2,0.2c0,0,0,0,0.1,0.1
	c0,0,0,0,0.1,0.1c0,0,0,0.1,0.1,0.1c0,0.1,0.1,0.1,0.1,0.2c0,0,0,0.1,0.1,0.1c0,0,0,0.1,0.1,0.1c0,0,0,0.1,0,0.1
	c0,0.1,0.1,0.1,0.1,0.2c0,0,0,0.1,0,0.1c0,0,0,0.1,0,0.1c0,0,0,0,0,0c0,0,0,0.1,0,0.1c0,0.1,0,0.1,0,0.2c0,0,0,0.1,0,0.1
	c0,0,0,0.1,0,0.1c0,0,0,0,0,0L75,92L68.2,85.2L68.2,85.2z M68.2,85.2l-3.9-3.9l-6.7-6.7l-1.6,1.6c0.1,0,0.1,0,0.2,0
	c0.1,0,0.2,0,0.2,0h0c0.1,0,0.2,0,0.3,0c0.1,0,0.2,0,0.3,0c0,0,0.1,0,0.1,0c0.1,0,0.2,0,0.3,0.1c0.1,0,0.2,0.1,0.3,0.1
	c0.2,0.1,0.3,0.2,0.5,0.3c0.1,0.1,0.2,0.1,0.2,0.2c0.1,0.1,0.1,0.1,0.2,0.2c0.1,0.1,0.1,0.1,0.2,0.2c0,0,0.1,0.1,0.1,0.1
	c0,0,0,0,0,0c0,0,0,0,0,0.1c0,0,0,0,0,0c0,0,0,0.1,0.1,0.1c0,0,0,0,0,0.1c0,0,0,0,0,0.1c0,0,0,0,0,0c0,0,0,0.1,0,0.1
	c0.1,0.2,0.1,0.3,0.2,0.5c0,0.1,0,0.1,0,0.2c0,0.1,0,0.1,0,0.2c0,0.1,0,0.1,0,0.2v0.5c0,0.1,0.1,0.1,0,0.2c0,0,0,0.1,0,0.1
	c0,0,0,0,0,0c0,0,0,0,0,0c0,0,0,0,0,0c0,0.1,0,0.1,0,0.2c0,0,0,0.1,0,0.1c0,0,0,0.1,0,0.1c0,0,0,0.1,0,0.1c0,0,0,0,0,0
	c0,0,0,0.1-0.1,0.1c0,0,0,0.1-0.1,0.1c0,0,0,0.1-0.1,0.1c0,0-0.1,0.1-0.1,0.1c0,0,0,0,0,0c0,0,0,0.1-0.1,0.1c0,0-0.1,0.1-0.1,0.1
	c0,0,0,0,0,0l3.3,3.1l3.9,3.7l3.8,3.6l0.1-0.1c1.1-1.1,2.8-1.1,3.9,0c0.1,0.1,0.1,0.1,0.2,0.2c0,0,0,0,0.1,0.1c0,0,0,0,0.1,0.1
	c0,0,0,0.1,0.1,0.1c0,0.1,0.1,0.1,0.1,0.2c0,0,0,0.1,0.1,0.1c0,0,0,0.1,0.1,0.1c0,0,0,0.1,0,0.1c0,0.1,0.1,0.1,0.1,0.2
	c0,0,0,0.1,0,0.1c0,0,0,0.1,0,0.1c0,0,0,0,0,0c0,0,0,0.1,0,0.1c0,0.1,0,0.1,0,0.2c0,0,0,0.1,0,0.1c0,0,0,0.1,0,0.1c0,0,0,0,0,0
	L75,92L68.2,85.2L68.2,85.2z M68.2,85.2l-3.9-3.9l-6.7-6.7l-1.6,1.6c0.1,0,0.1,0,0.2,0c0.1,0,0.2,0,0.2,0h0c0.1,0,0.2,0,0.3,0
	c0.1,0,0.2,0,0.3,0c0,0,0.1,0,0.1,0c0.1,0,0.2,0,0.3,0.1c0.1,0,0.2,0.1,0.3,0.1c0.2,0.1,0.3,0.2,0.5,0.3c0.1,0.1,0.2,0.1,0.2,0.2
	c0.1,0.1,0.1,0.1,0.2,0.2c0.1,0.1,0.1,0.1,0.2,0.2c0,0,0.1,0.1,0.1,0.1c0,0,0,0,0,0c0,0,0,0,0,0.1c0,0,0,0,0,0c0,0,0,0.1,0.1,0.1
	c0,0,0,0,0,0.1c0,0,0,0,0,0.1c0,0,0,0,0,0c0,0,0,0.1,0,0.1c0.1,0.2,0.1,0.3,0.2,0.5c0,0.1,0,0.1,0,0.2c0,0.1,0,0.1,0,0.2
	c0,0.1,0,0.1,0,0.2v0.5c0,0.1,0.1,0.1,0,0.2c0,0,0,0.1,0,0.1c0,0,0,0,0,0c0,0,0,0,0,0c0,0,0,0,0,0c0,0.1,0,0.1,0,0.2
	c0,0,0,0.1,0,0.1c0,0,0,0.1,0,0.1c0,0,0,0.1,0,0.1c0,0,0,0,0,0c0,0,0,0.1-0.1,0.1c0,0,0,0.1-0.1,0.1c0,0,0,0.1-0.1,0.1
	c0,0-0.1,0.1-0.1,0.1c0,0,0,0,0,0c0,0,0,0.1-0.1,0.1c0,0-0.1,0.1-0.1,0.1c0,0,0,0,0,0l3.3,3.1l3.9,3.7l3.8,3.6l0.1-0.1
	c1.1-1.1,2.8-1.1,3.9,0c0.1,0.1,0.1,0.1,0.2,0.2c0,0,0,0,0.1,0.1c0,0,0,0,0.1,0.1c0,0,0,0.1,0.1,0.1c0,0.1,0.1,0.1,0.1,0.2
	c0,0,0,0.1,0.1,0.1c0,0,0,0.1,0.1,0.1c0,0,0,0.1,0,0.1c0,0.1,0.1,0.1,0.1,0.2c0,0,0,0.1,0,0.1c0,0,0,0.1,0,0.1c0,0,0,0,0,0
	c0,0,0,0.1,0,0.1c0,0.1,0,0.1,0,0.2c0,0,0,0.1,0,0.1c0,0,0,0.1,0,0.1c0,0,0,0,0,0L75,92L68.2,85.2L68.2,85.2z M68.2,85.2l-3.9-3.9
	l-6.7-6.7l-1.6,1.6c0.1,0,0.1,0,0.2,0c0.1,0,0.2,0,0.2,0h0c0.1,0,0.2,0,0.3,0c0.1,0,0.2,0,0.3,0c0,0,0.1,0,0.1,0
	c0.1,0,0.2,0,0.3,0.1c0.1,0,0.2,0.1,0.3,0.1c0.2,0.1,0.3,0.2,0.5,0.3c0.1,0.1,0.2,0.1,0.2,0.2c0.1,0.1,0.1,0.1,0.2,0.2
	c0.1,0.1,0.1,0.1,0.2,0.2c0,0,0.1,0.1,0.1,0.1c0,0,0,0,0,0c0,0,0,0,0,0.1c0,0,0,0,0,0c0,0,0,0.1,0.1,0.1c0,0,0,0,0,0.1
	c0,0,0,0,0,0.1c0,0,0,0,0,0c0,0,0,0.1,0,0.1c0.1,0.2,0.1,0.3,0.2,0.5c0,0.1,0,0.1,0,0.2c0,0.1,0,0.1,0,0.2c0,0.1,0,0.1,0,0.2v0.5
	c0,0.1,0.1,0.1,0,0.2c0,0,0,0.1,0,0.1c0,0,0,0,0,0c0,0,0,0,0,0c0,0,0,0,0,0c0,0.1,0,0.1,0,0.2c0,0,0,0.1,0,0.1c0,0,0,0.1,0,0.1
	c0,0,0,0.1,0,0.1c0,0,0,0,0,0c0,0,0,0.1-0.1,0.1c0,0,0,0.1-0.1,0.1c0,0,0,0.1-0.1,0.1c0,0-0.1,0.1-0.1,0.1c0,0,0,0,0,0
	c0,0,0,0.1-0.1,0.1c0,0-0.1,0.1-0.1,0.1c0,0,0,0,0,0c0,0,0,0-0.1,0.1L57.2,82l5,5c0,0,0.1,0.1,0.1,0.1c0,0,0.1,0.1,0.1,0.1l5.5,5.5
	l1.7-1.7c1.1-1.1,2.8-1.1,3.9,0c0.1,0.1,0.1,0.1,0.2,0.2c0,0,0,0,0.1,0.1c0,0,0,0,0.1,0.1c0,0,0,0.1,0.1,0.1c0,0.1,0.1,0.1,0.1,0.2
	c0,0,0,0.1,0.1,0.1c0,0,0,0.1,0.1,0.1c0,0,0,0.1,0,0.1c0,0.1,0.1,0.1,0.1,0.2c0,0,0,0.1,0,0.1c0,0,0,0.1,0,0.1c0,0,0,0,0,0
	c0,0,0,0.1,0,0.1c0,0.1,0,0.1,0,0.2c0,0,0,0.1,0,0.1c0,0,0,0.1,0,0.1c0,0,0,0,0,0L75,92L68.2,85.2L68.2,85.2z M68.2,85.2l-3.9-3.9
	l-6.7-6.7l-1.6,1.6c0.1,0,0.1,0,0.2,0c0.1,0,0.2,0,0.2,0h0c0.1,0,0.2,0,0.3,0c0.1,0,0.2,0,0.3,0c0,0,0.1,0,0.1,0
	c0.1,0,0.2,0,0.3,0.1c0.1,0,0.2,0.1,0.3,0.1c0.2,0.1,0.3,0.2,0.5,0.3c0.1,0.1,0.2,0.1,0.2,0.2c0.1,0.1,0.1,0.1,0.2,0.2
	c0.1,0.1,0.1,0.1,0.2,0.2c0,0,0.1,0.1,0.1,0.1c0,0,0,0,0,0c0,0,0,0,0,0.1c0,0,0,0,0,0c0,0,0,0.1,0.1,0.1c0,0,0,0,0,0.1
	c0,0,0,0,0,0.1c0,0,0,0,0,0c0,0,0,0.1,0,0.1c0.1,0.2,0.1,0.3,0.2,0.5c0,0.1,0,0.1,0,0.2c0,0.1,0,0.1,0,0.2c0,0.1,0,0.1,0,0.2v0.5
	c0,0.1,0.1,0.1,0,0.2c0,0,0,0.1,0,0.1c0,0,0,0,0,0c0,0,0,0,0,0c0,0,0,0,0,0c0,0.1,0,0.1,0,0.2c0,0,0,0.1,0,0.1c0,0,0,0.1,0,0.1
	c0,0,0,0.1,0,0.1c0,0,0,0,0,0c0,0,0,0.1-0.1,0.1c0,0,0,0.1-0.1,0.1c0,0,0,0.1-0.1,0.1c0,0-0.1,0.1-0.1,0.1c0,0,0,0,0,0
	c0,0,0,0.1-0.1,0.1c0,0-0.1,0.1-0.1,0.1c0,0,0,0,0,0c0,0,0,0-0.1,0.1L57.2,82l5,5c0,0,0.1,0.1,0.1,0.1c0,0,0.1,0.1,0.1,0.1l5.5,5.5
	l1.7-1.7c1.1-1.1,2.8-1.1,3.9,0c0.1,0.1,0.1,0.1,0.2,0.2c0,0,0,0,0.1,0.1c0,0,0,0,0.1,0.1c0,0,0,0.1,0.1,0.1c0,0.1,0.1,0.1,0.1,0.2
	c0,0,0,0.1,0.1,0.1c0,0,0,0.1,0.1,0.1c0,0,0,0.1,0,0.1c0,0.1,0.1,0.1,0.1,0.2c0,0,0,0.1,0,0.1c0,0,0,0.1,0,0.1c0,0,0,0,0,0
	c0,0,0,0.1,0,0.1c0,0.1,0,0.1,0,0.2c0,0,0,0.1,0,0.1c0,0,0,0.1,0,0.1c0,0,0,0,0,0L75,92L68.2,85.2L68.2,85.2z M68.2,85.2l-3.9-3.9
	l-6.7-6.7l-1.6,1.6c0.1,0,0.1,0,0.2,0c0.1,0,0.2,0,0.2,0h0c0.1,0,0.2,0,0.3,0c0.1,0,0.2,0,0.3,0c0,0,0.1,0,0.1,0
	c0.1,0,0.2,0,0.3,0.1c0.1,0,0.2,0.1,0.3,0.1c0.2,0.1,0.3,0.2,0.5,0.3c0.1,0.1,0.2,0.1,0.2,0.2c0.1,0.1,0.1,0.1,0.2,0.2
	c0.1,0.1,0.1,0.1,0.2,0.2c0,0,0.1,0.1,0.1,0.1c0,0,0,0,0,0c0,0,0,0,0,0.1c0,0,0,0,0,0c0,0,0,0.1,0.1,0.1c0,0,0,0,0,0.1
	c0,0,0,0,0,0.1c0,0,0,0,0,0c0,0,0,0.1,0,0.1c0.1,0.2,0.1,0.3,0.2,0.5c0,0.1,0,0.1,0,0.2c0,0.1,0,0.1,0,0.2c0,0.2-0.1,0.4-0.1,0.6v0
	c0,0.1,0.1,0.1,0,0.2c0,0,0,0.1,0,0.1c0,0,0,0,0,0c0,0,0,0,0,0c0,0,0,0,0,0c0,0.1,0,0.1,0,0.2c0,0,0,0.1,0,0.1c0,0,0,0.1,0,0.1
	c0,0,0,0.1,0,0.1c0,0,0,0,0,0c0,0,0,0.1-0.1,0.1c0,0,0,0.1-0.1,0.1c0,0,0,0.1-0.1,0.1c0,0-0.1,0.1-0.1,0.1c0,0,0,0,0,0
	c0,0,0,0.1-0.1,0.1c0,0-0.1,0.1-0.1,0.1c0,0,0,0,0,0c0,0,0,0-0.1,0.1L57.2,82l5,5c0,0,0.1,0.1,0.1,0.1c0,0,0.1,0.1,0.1,0.1l5.5,5.5
	l1.7-1.7c1.1-1.1,2.8-1.1,3.9,0c0.1,0.1,0.1,0.1,0.2,0.2c0,0,0,0,0.1,0.1c0,0,0,0,0.1,0.1c0,0,0,0.1,0.1,0.1c0,0.1,0.1,0.1,0.1,0.2
	c0,0,0,0.1,0.1,0.1c0,0,0,0.1,0.1,0.1c0,0,0,0.1,0,0.1c0,0.1,0.1,0.1,0.1,0.2c0,0,0,0.1,0,0.1c0,0,0,0.1,0,0.1c0,0,0,0,0,0
	c0,0,0,0.1,0,0.1c0,0.1,0,0.1,0,0.2c0,0,0,0.1,0,0.1c0,0,0,0.1,0,0.1c0,0,0,0,0,0L75,92L68.2,85.2L68.2,85.2z"/>
<path class="st0" d="M21.4,45.1c-0.7,0-1.4-0.3-2-0.8c-0.5-0.5-0.8-1.3-0.8-2c0-0.7,0.3-1.4,0.8-2l7-7c1.1-1.1,2.8-1.1,3.9,0
	c0.5,0.5,0.8,1.3,0.8,2c0,0.7-0.3,1.4-0.8,2l-7,7C22.8,44.8,22.1,45.1,21.4,45.1z"/>
<path class="st0" d="M32.1,55.8c-0.7,0-1.4-0.3-2-0.8c-0.5-0.5-0.8-1.3-0.8-2s0.3-1.4,0.8-2l11.4-11.4c1.1-1.1,2.8-1.1,3.9,0
	c0.5,0.5,0.8,1.3,0.8,2c0,0.7-0.3,1.4-0.8,2L34.1,55C33.5,55.5,32.8,55.8,32.1,55.8z"/>
<path class="st0" d="M42.8,66.5c-0.7,0-1.4-0.3-2-0.8c-0.5-0.5-0.8-1.3-0.8-2c0-0.7,0.3-1.4,0.8-2l7-7c1.1-1.1,2.8-1.1,3.9,0
	c0.5,0.5,0.8,1.3,0.8,2c0,0.7-0.3,1.4-0.8,2l-7,7C44.2,66.3,43.5,66.5,42.8,66.5z"/>
<path class="st0" d="M53.6,77.3c-0.7,0-1.4-0.3-2-0.8c-0.5-0.5-0.8-1.3-0.8-2c0-0.7,0.3-1.4,0.8-2l7-7c1.1-1.1,2.8-1.1,3.9,0
	c0.5,0.5,0.8,1.3,0.8,2c0,0.7-0.3,1.4-0.8,2l-7,7C55,77,54.3,77.3,53.6,77.3z"/>
<path class="st0" d="M75,98.7c-0.7,0-1.4-0.3-2-0.8c-0.5-0.5-0.8-1.3-0.8-2c0-0.7,0.3-1.4,0.8-2l7-7c1.1-1.1,2.8-1.1,3.9,0
	c0.5,0.5,0.8,1.3,0.8,2c0,0.7-0.3,1.4-0.8,2l-7,7C76.5,98.5,75.7,98.7,75,98.7z"/>
<path class="st0" d="M85.8,109.5c-0.7,0-1.4-0.3-2-0.8c-0.5-0.5-0.8-1.3-0.8-2c0-0.7,0.3-1.4,0.8-2l7-7c1.1-1.1,2.8-1.1,3.9,0
	c0.5,0.5,0.8,1.3,0.8,2c0,0.7-0.3,1.4-0.8,2l-7,7C87.2,109.2,86.5,109.5,85.8,109.5z"/>
<path class="st0" d="M96.5,120.2c-0.7,0-1.4-0.3-2-0.8c-0.5-0.5-0.8-1.3-0.8-2c0-0.7,0.3-1.4,0.8-2l11.4-11.4c1.1-1.1,2.8-1.1,3.9,0
	c0.5,0.5,0.8,1.3,0.8,2c0,0.7-0.3,1.4-0.8,2l-11.4,11.4C97.9,119.9,97.2,120.2,96.5,120.2z"/>
<path class="st0" d="M64.2,88c-0.7,0-1.4-0.3-2-0.8c-0.5-0.5-0.8-1.3-0.8-2c0-0.7,0.3-1.4,0.8-2l11.4-11.4c1.1-1.1,2.8-1.1,3.9,0
	c0.5,0.5,0.8,1.3,0.8,2c0,0.7-0.3,1.4-0.8,2L66.2,87.1C65.7,87.7,64.9,88,64.2,88z"/>
<path class="st0" d="M107.2,131c-0.7,0-1.4-0.3-2-0.8c-0.5-0.5-0.8-1.3-0.8-2s0.3-1.4,0.8-2l7-7c1.1-1.1,2.8-1.1,3.9,0
	c0.5,0.5,0.8,1.3,0.8,2c0,0.7-0.3,1.4-0.8,2l-7,7C108.7,130.7,108,131,107.2,131z"/>
</svg>
