<svg xmlns="http://www.w3.org/2000/svg" xmlns:xlink="http://www.w3.org/1999/xlink" x="0px" y="0px"
	 viewBox="0 0 150 150" style="enable-background:new 0 0 150 150;" xml:space="preserve">
<style type="text/css">
	.st0{fill:#034737;}
</style>
<g>
	<path class="st0" d="M127.3,65.8h-21.1c-2.4,0-4.3,1.9-4.3,4.3v70.6c0,2.4,1.9,4.3,4.3,4.3h21.1c2.4,0,4.3-1.9,4.3-4.3V70.1
		C131.6,67.8,129.7,65.8,127.3,65.8z"/>
</g>
<path class="st0" d="M86.8,94.2H65.7c-2.4,0-4.3,1.9-4.3,4.3v42.2c0,2.4,1.9,4.3,4.3,4.3h21.1c2.4,0,4.3-1.9,4.3-4.3V98.5
	C91.1,96.1,89.2,94.2,86.8,94.2z"/>
<g>
	<path class="st0" d="M46.3,110.5H25.2c-2.4,0-4.3,1.9-4.3,4.3v25.8c0,2.4,1.9,4.3,4.3,4.3h21.1c2.4,0,4.3-1.9,4.3-4.3v-25.8
		C50.6,112.5,48.7,110.5,46.3,110.5z"/>
</g>
<path d="M21.2,92.9c-1.6,0-2.8-1.3-2.8-2.8c0-1.6,1.3-2.8,2.8-2.8c28.1,0,51.1-9.5,68.3-28.4c12.9-14.1,17.6-28.5,17.6-28.6
	c0.5-1.5,2.1-2.3,3.5-1.8c1.5,0.5,2.3,2.1,1.8,3.5c-0.2,0.6-5,15.5-18.7,30.5C81.2,76.3,58.3,92.9,21.2,92.9z"/>
<path d="M125.4,48c-0.7,0-1.4-0.2-1.9-0.7L108.7,34l-21,0.8c-1.2,0-2.3-0.7-2.8-1.8c-0.4-1.1-0.1-2.4,0.9-3.2l30.6-24.1
	c0.8-0.6,1.8-0.8,2.7-0.4c0.9,0.3,1.6,1.1,1.8,2.1l7.3,37.4c0.2,1.2-0.3,2.4-1.4,3C126.4,47.9,125.9,48,125.4,48z M109.8,28.3
	c0.7,0,1.4,0.3,1.9,0.7l9.4,8.5l-4.8-24.6L96.1,28.8l13.5-0.5C109.7,28.3,109.7,28.3,109.8,28.3z"/>
<path d="M125.4,45.2l-7.3-37.4L87.6,32l22.2-0.8L125.4,45.2z"/>
</svg>
