<svg xmlns="http://www.w3.org/2000/svg" xmlns:xlink="http://www.w3.org/1999/xlink" x="0px" y="0px"
	 viewBox="0 0 150 150" style="enable-background:new 0 0 150 150;" xml:space="preserve">
<style type="text/css">
	.st0{fill:#034737;}
</style>
<path d="M101.8,108.4"/>
<path class="st0" d="M134,96.7l-28.2,7.9v0.3c0.7,2.9,0.3,5.7-1.1,8.3c-1.6,2.7-4,4.7-7,5.4c-3,0.9-6.2,0.4-8.9-1l-16.2-9.2l1.6-2.7
	l16.2,9.2c2,1.1,4.3,1.4,6.4,0.7c2.1-0.6,4-2,5-4c0.6-1,0.9-2.1,1-3.3c0.4-2.9-0.9-5.6-3.3-7L60.3,79.3c0,0-4.2-2.7-9.7-1.1
	c0,0,0,0-0.1,0c-1,0.1-43.3,12.3-45.3,12.9H5l8.6,30.4l28.4-8c2.9,1.7,24.3,15.2,27.2,16.6c4.7,2.7,10.7,1.3,12,0.9
	c0.1,0,57.7-16.5,57.7-16.5c4-1.1,7.2-6.4,5.7-11.9C143.4,98.1,138.6,95.4,134,96.7z"/>
<path d="M127.7,71.2c3.6-5,5.6-11,5.6-17.3c0.1-8-3-15.6-8.6-21.2c-5.6-5.7-13.2-8.7-21.1-8.7c-16.6,0-29.9,13.3-29.9,29.8
	s13.5,29.8,29.8,29.8c2.9,0,5.6-0.4,8.2-1.1l-0.6-2.9c-2.6,0.7-5.2,1.1-7.7,1.1c-14.6,0-26.8-12-26.8-26.8s12-26.8,26.8-26.8
	s26.9,11.9,26.9,26.8c0,5.7-1.7,11.2-5.2,15.9L127.7,71.2z"/>
<path d="M128.8,28.8c-6.7-6.7-15.8-10.5-25.2-10.5c-3.3,0-6.6,0.4-9.5,1.3l0.6,2.7c2.9-0.9,6-1.3,9-1.3c18,0,32.8,14.8,32.8,32.8
	s-14.8,32.9-32.9,32.9c-18-0.1-32.8-14.9-32.8-32.9c0-6.9,2.1-13.5,6-19l-2.4-1.4c-4.3,6-6.4,13-6.4,20.5
	c0,19.6,15.9,35.5,35.5,35.5s35.7-15.9,35.7-35.5C139.2,44.5,135.5,35.5,128.8,28.8z"/>
<polygon points="84.2,64.5 89.6,67.3 99,56.7 107.1,62.2 117.7,51.1 122.9,54.3 121.9,40.1 107.8,44.8 112.6,47.8 106.3,54.4 
	97.8,48.8 "/>
</svg>
