<svg xmlns="http://www.w3.org/2000/svg" xmlns:xlink="http://www.w3.org/1999/xlink" x="0px" y="0px"
	 viewBox="0 0 150 150" style="enable-background:new 0 0 150 150;" xml:space="preserve">
<style type="text/css">
	.st0{fill:#034737;}
</style>
<path class="st0" d="M127.9,5H22.1C12.6,5,5,12.2,5,21v80.4c0,8.9,7.6,16,17.1,16h11.2v23.8c0,1.4,0.9,2.8,2.3,3.4
	c0.6,0.3,1.1,0.3,1.7,0.3c0.9,0,1.9-0.3,2.6-0.8l35.3-26.8h52.6c9.5,0,17.1-7.2,17.1-16V21C145,12.2,137.4,5,127.9,5z M137.1,101.3
	c0,4.7-4,8.4-9,8.4H73.8c-0.9,0-1.9,0.3-2.6,0.8L41.4,133v-19.6c0-2-1.9-3.7-4-3.7H22.1c-5,0-9-3.7-9-8.4v-80c0-4.7,4-8.4,9-8.4
	h106.1c5,0,9,3.7,9,8.4v80H137.1z"/>
<polygon points="45.4,63.6 67.5,63.6 67.5,55.9 45.4,55.9 45.4,46.2 69.4,46.2 69.4,38.1 36.1,38.1 36.1,83.6 70.5,83.6 70.5,75.3 
	45.4,75.3 "/>
<polygon points="105.8,69.9 87.8,38.1 77.8,38.1 77.8,83.6 86.7,83.6 86.7,51.4 105.2,83.6 114.7,83.6 114.7,38.1 105.8,38.1 "/>
</svg>
