<svg xmlns="http://www.w3.org/2000/svg" xmlns:xlink="http://www.w3.org/1999/xlink" x="0px" y="0px"
	 viewBox="0 0 150 150" style="enable-background:new 0 0 150 150;" xml:space="preserve">
<style type="text/css">
	.st0{fill:#034737;}
</style>
<path d="M101.8,108.4"/>
<path class="st0" d="M126.5,14.7H23.5C13.3,14.7,5,23,5,33.1V103c0,10.2,8.3,18.5,18.5,18.5h38.9v5.3h-12v8.6h49.3v-8.6h-12v-5.3
	h38.9c10.2,0,18.5-8.3,18.5-18.5V33.1C145,23,136.7,14.7,126.5,14.7z M137.6,103c0,6.1-5,11.1-11.1,11.1H23.5
	c-6.1,0-11.1-5-11.1-11.1V33.1c0-6.1,5-11.1,11.1-11.1h103.1c6.1,0,11.1,5,11.1,11.1V103z"/>
<path d="M121.6,54.6c0-4-3.2-7.3-7.3-7.3c-3.6,0-6.6,2.7-7.1,6.2H92.1L49.5,96.1H35.7c-0.4-3.6-3.4-6.4-7.2-6.4
	c-4,0-7.3,3.2-7.3,7.3c0,4,3.2,7.3,7.3,7.3c3.7,0,6.7-2.8,7.2-6.4h14.4l42.6-42.6h14.4c0.3,3.5,3,6.3,6.5,6.6v33.5
	c-3.7,0.3-6.6,3.4-6.6,7.2c0,4,3.2,7.3,7.3,7.3s7.3-3.2,7.3-7.3c0-3.7-2.7-6.7-6.3-7.2V61.7C118.9,61.2,121.6,58.2,121.6,54.6z"/>
<path d="M102.6,79c0-4-3.2-7.3-7.3-7.3c-4,0-7.3,3.2-7.3,7.3c0,3.8,2.9,6.8,6.6,7.2v9.1c-3.7,0.3-6.6,3.4-6.6,7.2
	c0,4,3.2,7.3,7.3,7.3c4,0,7.3-3.2,7.3-7.3c0-3.7-2.7-6.7-6.3-7.2v-9.1C99.8,85.7,102.6,82.7,102.6,79z"/>
<path d="M114.4,28.3c-3.6,0-6.6,2.7-7.1,6.2H92.1L49.5,77H35.7c-0.4-3.6-3.4-6.4-7.2-6.4c-4,0-7.3,3.2-7.3,7.3c0,4,3.2,7.3,7.3,7.3
	c3.7,0,6.7-2.8,7.2-6.4h14.4l42.6-42.6h14.4c0.3,3.7,3.4,6.7,7.2,6.7c4,0,7.3-3.2,7.3-7.3C121.6,31.5,118.4,28.3,114.4,28.3z"/>
<path d="M28.6,45.4c3.7,0,6.8-2.8,7.2-6.4h10c0.4,3.6,3.4,6.4,7.2,6.4c4,0,7.3-3.2,7.3-7.3c0-4-3.2-7.3-7.3-7.3
	c-3.7,0-6.7,2.8-7.2,6.4h-10c-0.4-3.6-3.4-6.4-7.2-6.4c-4,0-7.3,3.2-7.3,7.3C21.3,42.2,24.6,45.4,28.6,45.4z"/>
</svg>
