<svg xmlns="http://www.w3.org/2000/svg" xmlns:xlink="http://www.w3.org/1999/xlink" x="0px" y="0px"
	 viewBox="0 0 150 150" style="enable-background:new 0 0 150 150;" xml:space="preserve">
<style type="text/css">
	.st0{fill:#034737;}
</style>
<path d="M10.8,145c-3.1,0-5.7-2.5-5.8-5.6c-0.1-3.1,2.3-5.8,5.4-5.9l116.1-7.1l-4.9-55.1l-11.6,2H110c-1.5,0-2.5-0.8-2.7-1.9
	l-1.2-5.5c-0.3-1.3,0.5-2.6,1.8-2.9l32.2-8.7c0.2-0.1,0.4-0.1,0.6-0.1c1.1,0,2.2,0.8,2.4,1.9l1.9,8.5c0.1,0.7,0,1.3-0.4,1.9
	c-0.4,0.6-1,0.9-1.6,1.1l-9.8,1.7l6.2,69.4c0.1,1.6-0.4,3.2-1.5,4.4c-1.1,1.2-2.6,1.9-4.3,1.9H10.8z"/>
<path class="st0" d="M46.9,80.6l-2.8,9.3H24.3c-4.2,0-7.6,3.4-7.6,7.6c0,4.2,3.4,7.6,7.6,7.6h25.6c3.4,0,6.4-2.3,7.3-5.5l2.6-8.5
	L47.3,80.8C47.1,80.7,47,80.7,46.9,80.6L46.9,80.6z"/>
<path class="st0" d="M83.2,31.3c7.2-1.7,11.6-8.9,9.9-16c-1.7-7.2-8.9-11.6-16-9.9c-7.2,1.7-11.6,8.9-9.9,16
	C68.9,28.6,76.1,33,83.2,31.3z"/>
<path class="st0" d="M87.6,88.1c-0.4-1.6-1.3-3-2.6-4.1L71.4,73l7.3-19l7.2,8.4c1.2,1.4,3,2.2,4.8,2.2c1.1,0,2.2-0.3,3.3-0.9
	l12.9-7.8c3-1.8,4-5.7,2.2-8.7c-1.8-3-5.7-4-8.7-2.2L92,50l-6.8-8c-1.8-2.1-4.2-3.8-6.9-4.7l-11.4-4.1c-3.4-1.2-7.1-1.3-10.6-0.2
	l-14.9,4.8c-1.7,0.5-3.1,1.8-3.9,3.5l-6.3,14.1c-1.4,3.2,0,6.9,3.2,8.4c3.2,1.4,6.9,0,8.4-3.2l5.2-11.5l7.1-2.2l-5.8,22.1
	c-0.8,2.9,0.2,5.9,2.6,7.8l21.7,17.6l5.8,23.3c0.9,3.5,4,5.8,7.4,5.8c0.6,0,1.2-0.1,1.8-0.2c4.1-1,6.6-5.1,5.5-9.2L87.6,88.1
	L87.6,88.1z"/>
</svg>
