<?xml version="1.0" encoding="UTF-8"?>
<svg id="a" xmlns="http://www.w3.org/2000/svg" width="338.2" height="157.8" viewBox="0 0 338.2 157.8">
  <defs>
    <style>
      .b {
        fill: #fce8ca;
      }
    </style>
  </defs>
  <path class="b" d="m156.4,12.8v29.5c0,3.2-2.7,3.2-9.2,3.2v-4.8c-3-.3-6.2-1.3-8.3-3.6v-1.9c3.1.2,5.9-.5,8.3-1.6v-3.8c-3-.3-6.2-1.3-8.3-3.6v-1.9c3.1.2,5.9-.5,8.3-1.7v-4.9c0-4.5,4-4.2,9.2-4.9h0Z"/>
  <path class="b" d="m164.9,0c-2.3,6.5-5.8,9.1-13.1,9.1s-10.3,2.6-10.3,8.2.3,1.8.4,2.5h-2.9c-2-2.2-3.1-5.2-3.1-8,0-7.6,5.8-11.8,13.4-11.8h15.6,0Z"/>
  <path class="b" d="m160.5,61.6c-.4-7.8-5.7-11.1-5.7-11.1,0,0-7-5.5-14.2-.4-7.2,5.1-4,13.6-4,13.6,0,0,2,7.4,13,7.4v-2.8s-6.4.4-7.6-5.8c0,0-.5-5.6,5.1-5.6,0,0,4-.6,6.5,7.8l6.8-3.1h0Z"/>
  <path class="b" d="m160.6,12.1s6.1-.5,9.8-12.1c0,0,9.1,2.2,9.3,12.9v35s-.4,7.1,4,11.1l1.8-.8,1.3,2.3-9.3,4.2s-6.4-3.4-6.6-10.2c-.2-6.7-.4-40.1-.4-40.1,0,0,0-2.9-2.2-4.9,0,0-2.8,3.7-5.2,4.6l-2.6-2.1h0Z"/>
  <path class="b" d="m183.6,12.1s6.1-.5,9.8-12.1c0,0,9.1,2.2,9.3,12.9v35s-.4,7.1,4,11.1l1.8-.8,1.3,2.3-9.3,4.2s-6.4-3.4-6.6-10.2c-.2-6.7-.4-40.1-.4-40.1,0,0,0-2.9-2.2-4.9,0,0-2.8,3.7-5.2,4.6l-2.6-2.1h0Z"/>
  <path class="b" d="m101.8,100.4c.3,0,.5,0,.8-.3s.4-.4.4-.7v-9c0-.3-.2-.5-.4-.7s-.4-.3-.8-.3h-.2v-.2h4v.2h-.2c-.3,0-.5,0-.8.3-.2.2-.4.4-.4.7v9.6h3c.6,0,1.1,0,1.5-.3.4-.2.7-.4.9-.7s.4-.6.6-1.1h.2l-1.1,2.7h-7.7v-.2h.3,0Z"/>
  <path class="b" d="m111.6,100.4c.3,0,.5,0,.8-.3s.4-.4.4-.7v-9.1c0-.3,0-.5-.4-.7-.2-.2-.4-.3-.8-.3h-.3v-.2h5.6c.5,0,1,0,1.3,0,.4,0,.6-.2.8-.2v2.2h-.2v-.3c0-.3,0-.5-.3-.7s-.4-.3-.7-.3h-4v4.9h3.2c.3,0,.4,0,.5-.2s.2-.4.2-.5v-.3h.2v2.7h-.2v-.3c0-.4,0-.6-.4-.7h-3.7v4.9h3c.5,0,1.1,0,1.4-.3s.7-.4.9-.7.4-.6.6-1.1h.2l-1.1,2.7h-7.7v-.2h.3l.2-.3Z"/>
  <path class="b" d="m133.2,100.4h.2v.2h-4v-.2h.2c.3,0,.4,0,.5-.3,0-.2.2-.4.2-.4v-.4l-1.1-2.5h-4.9l-1.1,2.5c0,.2,0,.4,0,.4s0,.3.2.4.4.3.5.3h.2v.2h-3.7v-.2h.2c.3,0,.5,0,.8-.3.3-.2.5-.4.7-.8,2.8-5.9,4.2-9.1,4.3-9.3.2-.5.4-.9.4-1.1h.2l4.7,10.4c.4.7.9,1.1,1.4,1.1h0Zm-8.5-4.2h4.3l-2.2-5.2-2.2,5.2h0Z"/>
  <path class="b" d="m146.8,94.9c0,1.8-.5,3.1-1.6,4.2-1.1,1-2.6,1.5-4.5,1.5h-6.4v-.2h.3c.3,0,.5,0,.8-.3.2-.2.4-.4.4-.7v-9c0-.3,0-.5-.4-.7s-.4-.3-.8-.3h-.2v-.2h6.4c1.3,0,2.3.2,3.2.7s1.6,1.1,2.2,2c.5.9.7,1.9.7,3.1h0v-.2Zm-9.9-5.1v10.3h3.8c1.4,0,2.6-.4,3.5-1.3s1.3-2.2,1.3-3.8-.4-2.9-1.3-3.8-2-1.3-3.5-1.3h-3.8Z"/>
  <path class="b" d="m166.2,100.4h.2v.2h-4.3v-.2h.2c.3,0,.4,0,.6-.3s.2-.4.2-.4v-.4l-1.3-3.2h-5.1l-1.3,3.2v.4c0,.2,0,.3.2.4s.4.3.6.3h.2v.2h-3.9v-.2h.2c.4,0,.6,0,.9-.3.3-.2.5-.5.7-.9l4.3-10.2c.4-1.1.7-1.7.7-2h.2l5.1,12.2c.2.4.4.7.7.9s.6.3,1,.3h-.2Zm-9.3-5h4.7l-2.3-6.1-2.4,6.1h0Z"/>
  <path class="b" d="m168.3,99.2c-1.1-1.1-1.7-2.5-1.7-4.4s.5-3.3,1.7-4.4,2.7-1.6,4.6-1.6,1.6,0,2.3.3c.8.2,1.5.4,2.1.8l.4,2.7h-.2c-.5-2.2-2.2-3.3-4.8-3.3s-2.7.4-3.6,1.4-1.3,2.3-1.3,4,.2,2.1.6,2.9,1,1.4,1.7,1.9c.7.4,1.6.6,2.6.6s1.9-.2,2.6-.4c.7-.3,1.3-.8,1.9-1.4.4-.7.8-1.5.8-2.5h.2l-.2,2.6c-.5.7-1.3,1.3-2.2,1.8-1,.4-2,.6-3.1.6-2,0-3.5-.5-4.6-1.6h0v.2Z"/>
  <path class="b" d="m191.7,100.4h.2v.2h-4v-.2h.2c.3,0,.4,0,.5-.3,0-.2.2-.4.2-.4v-.4l-1.1-2.5h-4.9l-1.1,2.5c0,.2,0,.4,0,.4s0,.3.2.4.4.3.5.3h.2v.2h-3.7v-.2h.2c.3,0,.5,0,.8-.3.3-.2.5-.4.7-.8,2.8-5.9,4.2-9.1,4.3-9.3.2-.5.4-.9.4-1.1h.2l4.7,10.4c.4.7.9,1.1,1.4,1.1h0Zm-8.5-4.2h4.3l-2.2-5.2-2.2,5.2h0Z"/>
  <path class="b" d="m205.3,94.9c0,1.8-.5,3.1-1.6,4.2-1.1,1-2.6,1.5-4.5,1.5h-6.4v-.2h.3c.3,0,.5,0,.8-.3s.4-.4.4-.7v-9c0-.3,0-.5-.4-.7s-.4-.3-.8-.3h-.3v-.2h6.4c1.3,0,2.3.2,3.2.7s1.6,1.1,2.2,2c.5.9.7,1.9.7,3.1h0v-.2Zm-9.9-5.1v10.3h3.8c1.4,0,2.6-.4,3.5-1.3s1.3-2.2,1.3-3.8-.4-2.9-1.3-3.8-2-1.3-3.5-1.3h-3.8Z"/>
  <path class="b" d="m207.3,100.4c.3,0,.5,0,.8-.3s.4-.4.4-.7v-9.1c0-.3,0-.5-.4-.7-.2-.2-.4-.3-.8-.3h-.3v-.2h5.6c.5,0,1,0,1.3,0,.4,0,.6-.2.8-.2v2.2h-.2v-.3c0-.3,0-.5-.3-.7s-.4-.3-.7-.3h-4v4.9h3.2c.3,0,.4,0,.5-.2s.2-.4.2-.5v-.3h.2v2.7h-.2v-.3c0-.4,0-.6-.4-.7h-3.7v4.9h3c.5,0,1.1,0,1.4-.3s.7-.4.9-.7.4-.6.6-1.1h.2l-1.1,2.7h-7.7v-.2h.3l.2-.3Z"/>
  <path class="b" d="m232.7,100.4h.3v.2h-4v-.2h.3c.2,0,.4,0,.5-.2.2-.2.2-.4.2-.5l-1-7.8-3.6,7.1c-.4.8-.5,1.4-.6,2h-.2l-4.6-8.9-.9,7.7c0,.2,0,.4.2.5s.4.2.5.2h.3v.2h-3.5v-.2h.3c.4,0,.8-.2,1.1-.5,0-.2.2-.4.3-.6l1.5-10.4h.2l5,9.7,4.9-9.7h.2l1.5,10.5c0,.3.2.5.4.7s.5.3.9.3h-.2Z"/>
  <path class="b" d="m245.2,89.4h-.2c-.4,0-.7,0-1,.3-.4.2-.5.4-.8.7l-3.7,5.6v3.5c0,.3,0,.5.4.7.2.2.4.3.8.3h.3v.2h-4v-.2h.3c.3,0,.5,0,.8-.3.2-.2.4-.4.4-.7v-3.5l-3.5-5.6c-.4-.6-1-1-1.8-1h-.3v-.2h4.4v.2h-.2c-.3,0-.4,0-.5.2s-.2.3-.2.4v.3l2.8,4.9,3-4.9v-.3c0,0,0-.3-.2-.4,0-.2-.3-.2-.5-.2h-.2v-.2h4v.2h0Z"/>
  <path class="b" d="m22,157.7l-14-32.3-2.3,26.4c0,1.3.3,2.4,1.2,3.2.9.8,2,1.3,3.3,1.3v.5H0v-.5c1.3,0,2.3-.5,3.2-1.4s1.3-2,1.5-3.2l2.5-27.8c-.6-1.3-1.4-2.3-2.4-3.1-1-.7-2.2-1.2-3.7-1.2v-.5h12l12.2,28.4,12.2-28.4h9.3v.5c-1.1,0-2,.4-2.7,1-.7.6-1.1,1.5-1,2.6l2.5,29.8c.2,1.2.7,2,1.6,2.6s1.8.8,2.7.8v.4h-15.6v-.4c.5,0,1.2,0,1.8-.4.6-.3,1.1-.6,1.5-1.2.4-.5.5-1.1.4-1.7l-2.4-27.7-13.9,32.2h0Z"/>
  <path class="b" d="m59.9,157.7c-2.1,0-3.7-.5-4.9-1.6s-1.9-2.6-1.9-4.4.2-1.5.4-2.2.8-1.3,1.5-2.1c.8-.6,1.8-1.3,3.1-2.1,1.3-.7,3.1-1.4,5.3-2.2l4.7-1.7v-3.8c0-1.9-.3-3.4-.9-4.6-.6-1.1-1.4-1.7-2.5-1.7s-2.3.9-3.2,2.5-1.5,4-1.8,6.8l-5.4-3.1c.5-1.3,1.4-2.6,2.6-3.6s2.5-1.9,4-2.4c1.5-.5,3.1-.8,4.8-.8,2.9,0,5.1.8,6.9,2.3,1.8,1.6,2.7,3.8,2.7,6.5v12.1c0,2,.6,2.9,2,2.9s1.5-.4,2.2-1.3l.4.4c-.9,1.2-1.9,2.2-3.1,2.9s-2.4,1.1-3.6,1.1-2.3-.4-3.3-1.3c-.9-.9-1.5-2-1.7-3.5-1.6,1.7-3.1,2.9-4.3,3.7-1.3.7-2.6,1.2-4,1.2h0Zm3.8-3.1c.7,0,1.4-.2,2.2-.5s1.4-1,2.3-1.8v-10.2l-2,.7c-1.7.6-3,1.3-4,1.9-.9.6-1.5,1.3-1.9,2.2s-.5,1.7-.5,2.8.4,2.6,1.1,3.5c.7.9,1.6,1.3,2.7,1.3h0Z"/>
  <path class="b" d="m93.9,157.6c-2.3,0-4.3-.5-6.1-1.7-1.8-1.2-3.2-2.7-4.2-4.8-1-2-1.5-4.3-1.5-6.9s.5-5,1.6-7c1.1-2,2.6-3.6,4.6-4.7s4.1-1.7,6.6-1.7,3.9.4,5.5,1.2,2.9,1.9,3.8,3.4c1,1.4,1.5,3.1,1.6,5v.7h-16.8v.3c0,3.5.8,6.4,2.3,8.5s3.7,3.2,6.3,3.2,3.1-.4,4.6-1.2,2.6-1.9,3.5-3.2l.4.2c-.5,1.7-1.4,3.2-2.7,4.5-1.2,1.3-2.6,2.3-4.3,3.1-1.6.7-3.4,1.1-5.3,1.1h.2Zm-4.9-17.2h10.2c0-2.6-.4-4.8-1.3-6.4s-2.1-2.4-3.6-2.4-2.7.8-3.7,2.4-1.5,3.8-1.6,6.5h0Z"/>
  <path class="b" d="m119.4,157.7c-.9,0-1.5,0-2,0-.4,0-.8-.2-1.3-.3s-.9-.2-1.5-.3c-.6,0-1.6,0-2.9,0l-1.2-9.4h.6c.5,3.1,1.5,5.5,3.1,7.1,1.4,1.6,3.1,2.3,4.9,2.3s3-.4,3.9-1.1,1.3-1.6,1.3-2.9-.2-1.4-.5-2.1-1.1-1.2-2-1.8-2.2-1.3-3.8-2.2l-1.4-.8c-1.9-1-3.2-2.2-4.1-3.7-.9-1.3-1.3-2.9-1.3-4.5s.8-4,2.5-5.4c1.6-1.3,3.9-2,6.7-2s1.3,0,1.7,0c.4,0,.8.2,1.3.3s.9.2,1.5.3c.6,0,1.4,0,2.4,0l.7,8.1h-.6c-.2-1.6-.6-3-1.3-4.2s-1.5-2.2-2.4-2.9-1.9-1-2.9-1-2.2.4-3.1,1c-.7.7-1.2,1.6-1.2,2.8s.3,1.7.9,2.5c.5.7,1.7,1.5,3.4,2.4l1.5.7c2.3,1.2,4,2.4,5.1,3.8s1.6,3,1.6,5c0,5.2-3.1,7.9-9.4,7.9h0l-.2.3Z"/>
  <path class="b" d="m141.7,157.7c-1.7,0-3.1-.5-4.3-1.6s-1.6-2.5-1.6-4.3v-19.3h-4.3v-.6c2.3-.2,4.4-.9,6.2-2.2,1.8-1.3,3.3-3.1,4.5-5.3h.8v7.2h6.7l-.5.9h-6.2v18.2c0,2.7.9,4,2.7,4s1.3-.2,2.1-.5c.8-.4,1.5-.8,2.2-1.4v.5c-1.1,1.4-2.4,2.5-4,3.3s-3,1.3-4.4,1.3h.2Z"/>
  <path class="b" d="m152,157v-.5h0c1.2,0,2.2-.4,2.9-1.1s1.1-1.7,1.1-2.9v-16.5c0-1.3-.3-2.2-.8-3s-1.6-1.1-3.3-1.1v-.5h4.9c1.8,0,3.1-.2,4-.5s1.5-.8,1.9-1.3h.3v8.3c.4-1,1.1-2.1,1.7-3.1.7-1.1,1.5-2.1,2.6-2.8s2.3-1.2,3.8-1.2,1,0,1.6.2c.5,0,1.2.3,1.8.5l-2,5.8c-1.2-.6-2.2-1.2-3.1-1.4s-1.7-.4-2.3-.4c-1.2,0-2,.4-2.5,1.1s-1,1.5-1.4,2.5v13.4c0,1.2.4,2.2,1.1,2.9s1.7,1.1,2.9,1.1h0v.5h-15.4.4Z"/>
  <path class="b" d="m190.6,157.7c-2.8,0-5.1-.5-7.2-1.6s-3.7-2.7-4.8-4.7c-1.2-2-1.7-4.4-1.7-7.1s.5-5.1,1.7-7.1c1.2-2,2.7-3.6,4.8-4.7s4.5-1.6,7.2-1.6,5.1.5,7.2,1.6,3.6,2.7,4.8,4.7,1.7,4.4,1.7,7.1-.5,5.1-1.7,7.1c-1.2,2-2.7,3.6-4.8,4.7s-4.4,1.6-7.2,1.6Zm0-.6c1.2,0,2.2-.5,3.1-1.7.8-1.2,1.5-2.7,2-4.7s.7-4.1.7-6.4-.3-4.8-.7-6.7-1.2-3.4-2-4.5-1.8-1.6-2.9-1.6-2.2.5-3,1.7c-.8,1.2-1.5,2.7-2,4.7s-.7,4-.7,6.4.3,4.8.7,6.7c.5,2,1.2,3.4,2.1,4.5s1.8,1.6,2.8,1.6h0Z"/>
  <path class="b" d="m232.1,157.7c-4.3,0-8.2-.8-11.4-2.4-3.2-1.6-5.8-4-7.6-6.8-1.8-3-2.7-6.4-2.7-10.2s.9-7.4,2.7-10.2,4.4-5.2,7.7-6.7c3.3-1.6,7.3-2.4,11.9-2.4s2,0,2.8,0,1.4.2,2.1.3c.6,0,1.3.2,2.2.3.8,0,1.9,0,3.1,0l1.5,10.1h-.5c-.4-2-1.1-3.7-2.2-5.2s-2.4-2.7-4-3.6-3.4-1.3-5.4-1.3-3.7.4-5.4,1.4-3.1,2.2-4.2,4-2.1,3.8-2.7,6.1-1,4.9-1,7.7.5,6.9,1.7,9.7c1.2,2.8,2.8,4.9,4.9,6.4,2.1,1.5,4.5,2.2,7.3,2.2s5.8-1,8-2.9c2.1-1.9,3.4-4.6,3.9-8.1h.5l-1.4,10.9c-1.6,0-3,0-4.1.2s-2.3.3-3.5.4-2.3.2-3.8.2h0Z"/>
  <path class="b" d="m248.1,157v-.5c1.2,0,2.2-.4,3-1.1s1.2-1.7,1.2-3v-28.6c0-1.2-.4-2.2-1.2-2.9s-1.7-1.1-3-1.1v-.5h5.1c1.7,0,3.1-.2,4-.5.8-.4,1.4-.8,1.8-1.3h.5v35.1c0,1.3.4,2.2,1.2,3s1.7,1.1,3,1.1v.5h-15.6Z"/>
  <path class="b" d="m273,157.7c-2.1,0-3.7-.5-4.9-1.6s-1.9-2.6-1.9-4.4,0-1.5.4-2.2c.3-.7.8-1.3,1.5-2.1.8-.6,1.8-1.3,3.1-2.1s3.1-1.4,5.3-2.2l4.7-1.7v-3.8c0-1.9-.3-3.4-.9-4.6-.6-1.1-1.4-1.7-2.5-1.7s-2.3.9-3.2,2.5-1.4,4-1.8,6.8l-5.4-3.1c.5-1.3,1.4-2.6,2.6-3.6s2.5-1.9,4-2.4c1.5-.5,3.1-.8,4.8-.8,2.9,0,5.1.8,6.9,2.3,1.8,1.6,2.7,3.8,2.7,6.5v12.1c0,2,.6,2.9,2,2.9s1.5-.4,2.2-1.3l.4.4c-.9,1.2-1.9,2.2-3.1,2.9s-2.4,1.1-3.6,1.1-2.3-.4-3.3-1.3c-.9-.9-1.5-2-1.7-3.5-1.6,1.7-3.1,2.9-4.3,3.7-1.3.7-2.6,1.2-4,1.2h0Zm3.8-3.1c.7,0,1.4-.2,2.2-.5s1.4-1,2.3-1.8v-10.2l-2,.7c-1.7.6-3.1,1.3-4,1.9-.9.6-1.5,1.3-1.9,2.2s-.5,1.7-.5,2.8.4,2.6,1.1,3.5c.7.9,1.6,1.3,2.7,1.3h0Z"/>
  <path class="b" d="m305.1,157.7c-.9,0-1.5,0-2,0-.4,0-.8-.2-1.3-.3s-.9-.2-1.5-.3c-.6,0-1.6,0-2.9,0l-1.2-9.4h.6c.5,3.1,1.5,5.5,3.1,7.1,1.4,1.6,3.1,2.3,4.9,2.3s3-.4,3.9-1.1,1.3-1.6,1.3-2.9-.2-1.4-.5-2.1c-.4-.5-1.1-1.2-2-1.8s-2.2-1.3-3.8-2.2l-1.4-.8c-1.8-1-3.2-2.2-4-3.7-.9-1.3-1.3-2.9-1.3-4.5s.8-4,2.5-5.4,3.9-2,6.7-2,1.3,0,1.7,0c.4,0,.9.2,1.3.3s.9.2,1.5.3c.6,0,1.4,0,2.4,0l.7,8.1h-.6c-.2-1.6-.6-3-1.3-4.2s-1.5-2.2-2.4-2.9-1.9-1-2.9-1-2.2.4-3.1,1-1.2,1.6-1.2,2.8.3,1.7.9,2.5c.5.7,1.7,1.5,3.4,2.4l1.5.7c2.3,1.2,4,2.4,5.1,3.8,1.1,1.3,1.6,3,1.6,5,0,5.2-3.1,7.9-9.4,7.9h0l-.3.3Z"/>
  <path class="b" d="m328.5,157.7c-.9,0-1.5,0-2,0-.4,0-.8-.2-1.3-.3s-.9-.2-1.5-.3c-.6,0-1.6,0-2.9,0l-1.2-9.4h.6c.5,3.1,1.5,5.5,3.1,7.1,1.4,1.6,3.1,2.3,4.9,2.3s3-.4,3.9-1.1,1.3-1.6,1.3-2.9-.2-1.4-.5-2.1c-.4-.5-1.1-1.2-2-1.8s-2.2-1.3-3.8-2.2l-1.4-.8c-1.8-1-3.2-2.2-4-3.7-.9-1.3-1.3-2.9-1.3-4.5s.8-4,2.5-5.4,3.9-2,6.7-2,1.3,0,1.7,0c.4,0,.9.2,1.3.3s.9.2,1.5.3c.6,0,1.4,0,2.4,0l.7,8.1h-.6c-.2-1.6-.6-3-1.3-4.2s-1.5-2.2-2.4-2.9-1.9-1-2.9-1-2.2.4-3.1,1-1.2,1.6-1.2,2.8.3,1.7.9,2.5c.5.7,1.7,1.5,3.4,2.4l1.5.7c2.3,1.2,4,2.4,5.1,3.8,1.1,1.3,1.6,3,1.6,5,0,5.2-3.1,7.9-9.4,7.9h0l-.3.3Z"/>
</svg>