<?xml version="1.0" encoding="utf-8"?>
<svg viewBox="3.098 -28.503 285.94 181.86" style="enable-background:new 0 0 285.94 181.86;" xmlns="http://www.w3.org/2000/svg">
  <defs>
    <style type="text/css">
	.st0{fill:#343433;}
	.st1{fill:#1E2756;}
	.st2{fill:#166D4D;}
	.st3{fill:#1C2753;}
</style>
  </defs>
  <g transform="matrix(1, 0, 0, 1, -4.337378025054933, 8.674753189086914)">
    <g id="XMLID_1001_">
      <path id="XMLID_1059_" class="st0" d="M203.49,40.72c-6.6,0-13.21,0-19.81,0c-0.08-0.19-0.16-0.39-0.24-0.58    c18.82-10.52,37.64-21.04,57.04-31.88c0,21.64,0,42.81,0,64.41c-3.74-6.3-7.39-12.44-11.65-19.61c-1.75,2.14-3.04,4.08-4.68,5.68    c-20.48,19.93-43.92,35.12-71.44,43.37c-29.68,8.9-59.5,9.15-89.3,0.38c-1.1-0.32-2.17-0.76-3.28-1.27    c60.03,8.99,107.77-11.25,143.85-59.29C203.81,41.52,203.65,41.12,203.49,40.72z"/>
      <path id="XMLID_1058_" class="st1" d="M116.46,36.8c7.11-2.88,14.26-3.23,21.28,0.25c6.96,3.45,11.32,9.41,15.03,16.62    c0.72-4.45,1.18-8.37,2.01-12.22c3.25-15.06,10.16-27.72,24.09-35.54c7.61-4.27,15.84-6.25,24.79-5.87    c-30.65,13.77-46.35,37.63-48.82,70.95c-0.39-0.81-0.79-1.61-1.16-2.43c-4.18-9.25-9.53-17.64-17.67-23.98    C130.27,40.1,123.78,37.6,116.46,36.8z"/>
      <path id="XMLID_1023_" class="st1" d="M71.4,75.22c2.37-4.55,4.48-9.07,7-13.34c5.87-9.93,13.95-17.19,25.5-19.88    c6.1-1.42,12.14-1.26,18.1,0.85c-26.24,5.78-42.28,22.87-52.82,47.23c-1.17-8.15-3-15.3-6.98-21.72    c-3.96-6.38-9.38-11.13-16.47-14.33c5.31-1.19,12.88,1.03,17.64,4.99C68.41,63.21,70.31,69,71.4,75.22z"/>
      <path id="XMLID_1003_" class="st1" d="M142.7,29.92c-5.79-0.04-10.18-4.45-10.14-10.2c0.03-5.67,4.59-10.23,10.22-10.24    c5.72-0.01,10.4,4.73,10.31,10.44C153.01,25.56,148.44,29.96,142.7,29.92z"/>
      <path id="XMLID_1002_" class="st1" d="M63.76,45.22c0.03-4.78,3.74-8.4,8.57-8.36c4.77,0.04,8.51,3.85,8.43,8.57    c-0.08,4.66-4.09,8.58-8.66,8.47C67.33,53.79,63.74,50.05,63.76,45.22z"/>
    </g>
    <g id="XMLID_889_"/>
    <g/>
    <g/>
  </g>
</svg>