<!DOCTYPE svg PUBLIC "-//W3C//DTD SVG 1.1//EN" "http://www.w3.org/Graphics/SVG/1.1/DTD/svg11.dtd">

<!-- Uploaded to: SVG Repo, www.svgrepo.com, Transformed by: SVG Repo Mixer Tools -->
<svg fill="#ffffff" height="33px" width="33px" version="1.1" id="Capa_1" xmlns="http://www.w3.org/2000/svg" xmlns:xlink="http://www.w3.org/1999/xlink" viewBox="0 0 325.262 325.262" xml:space="preserve">

<g id="SVGRepo_bgCarrier" stroke-width="0"/>

<g id="SVGRepo_tracerCarrier" stroke-linecap="round" stroke-linejoin="round"/>

<g id="SVGRepo_iconCarrier"> <path d="M276.397,325.262c-3.161,0-6.154-1.885-7.416-4.994l-22.086-54.433c-12.342-30.408-26.366-47.908-44.821-54.943 l-31.442,43.087v40.753c0,4.418-3.582,8-8,8s-8-3.582-8-8v-40.756l-31.441-43.084c-18.458,7.033-32.48,24.532-44.823,54.944 l-22.085,54.432c-1.661,4.093-6.323,6.065-10.421,4.405c-4.094-1.661-6.066-6.326-4.405-10.421L63.54,259.82 c8.52-20.99,17.513-35.853,28.301-46.774c14.288-14.464,31.952-21.798,52.502-21.798h36.575c20.55,0,38.214,7.334,52.502,21.798 c10.788,10.922,19.781,25.784,28.301,46.773l22.086,54.434c1.661,4.094-0.312,8.76-4.405,10.421 C278.416,325.073,277.398,325.262,276.397,325.262z M140.415,207.354l22.217,30.443l22.217-30.443 c-1.29-0.071-2.601-0.106-3.93-0.106h-36.575C143.015,207.248,141.705,207.283,140.415,207.354z M162.63,168.944 c-29.225,0-53-23.776-53-53.002c0-7.418,1.495-14.566,4.448-21.279l-1.436-41.021L72.921,41.777 c-3.389-1.012-5.711-4.129-5.711-7.665s2.322-6.653,5.711-7.665l87.422-26.111c1.492-0.447,3.086-0.447,4.578,0l87.233,26.055 c0.826,0.225,1.599,0.578,2.296,1.037c1.045,0.688,1.909,1.608,2.528,2.679c0.28,0.483,0.511,0.998,0.686,1.539 c0.254,0.781,0.39,1.612,0.39,2.467c0,0.059-0.001,0.117-0.002,0.176V67.61c0,4.418-3.582,8-8,8s-8-3.582-8-8V44.851l-29.413,8.785 l-1.314,41.351c2.859,6.625,4.308,13.665,4.308,20.955C215.632,145.167,191.856,168.944,162.63,168.944z M127.156,105.374 c-1.014,3.4-1.525,6.938-1.525,10.568c0,20.403,16.598,37.002,37,37.002c20.403,0,37.002-16.599,37.002-37.002 c0-3.522-0.482-6.959-1.439-10.271c-11.318,1.898-22.556,2.76-35.561,2.76C150.426,108.43,139.24,107.477,127.156,105.374z M129.911,89.612c11.159,1.938,21.479,2.818,32.721,2.818c12.053,0,22.435-0.79,32.847-2.529l0.998-31.438l-31.556,9.425 c-1.492,0.447-3.086,0.447-4.578,0l-31.521-9.414L129.911,89.612z M122.89,40.003l39.742,11.87l39.761-11.875 c0.094-0.03,0.188-0.059,0.283-0.085l19.425-5.802L162.632,16.35l-59.469,17.762l19.402,5.795 C122.674,39.937,122.782,39.969,122.89,40.003z"/> </g>

</svg>