<svg width="33" height="33" viewBox="0 0 33 33" fill="none" xmlns="http://www.w3.org/2000/svg">
<path d="M18.8899 13.9234C20.3243 15.0935 21.0415 15.6786 21.0415 16.6792C21.0415 17.6799 20.3243 18.265 18.8899 19.4351C18.4939 19.7581 18.1012 20.0622 17.7403 20.3156C17.4237 20.538 17.0651 20.768 16.6939 20.9937C15.2628 21.8639 14.5473 22.299 13.9056 21.8173C13.2638 21.3356 13.2055 20.3271 13.0889 18.3101C13.0559 17.7397 13.035 17.1805 13.035 16.6792C13.035 16.178 13.0559 15.6188 13.0889 15.0484C13.2055 13.0314 13.2638 12.0229 13.9056 11.5412C14.5473 11.0594 15.2628 11.4946 16.6939 12.3648C17.0651 12.5905 17.4237 12.8205 17.7403 13.0428C18.1012 13.2963 18.4939 13.6004 18.8899 13.9234Z" stroke="white" stroke-width="2.00163"/>
<path d="M9.69893 5.1203C11.6617 3.98491 13.9405 3.33508 16.371 3.33508C23.7409 3.33508 29.7153 9.30949 29.7153 16.6793C29.7153 24.0491 23.7409 30.0235 16.371 30.0235C9.00124 30.0235 3.02682 24.0491 3.02682 16.6793C3.02682 14.2487 3.67665 11.9699 4.81204 10.0072" stroke="white" stroke-width="2.00163" stroke-linecap="round"/>
</svg>
