<svg id="图层_1" data-name="图层 1" xmlns="http://www.w3.org/2000/svg" width="48.5mm" height="19.6mm" viewBox="0 0 137.4 55.4"><rect x="75.4" y="9.5" width="0.9" height="8.4" fill="#0b55a1"/><path d="M80.8,12.8v.8h0a2.6,2.6,0,0,1,1.8-.9,1.5,1.5,0,0,1,1.7,1.7v4.4h-.8V14.5c0-.8-.4-1.1-1-1.1a2.6,2.6,0,0,0-1.7.9v4.5h-.9v-6Z" transform="translate(-1 -0.9)" fill="#0b55a1"/><path d="M86.5,12.8v-2h.9v2h1.4v.7H87.4v4.3c0,.3.2.4.7.4h.7v.7h-1c-.9,0-1.3-.3-1.3-1V13.5h-.9v-.7Z" transform="translate(-1 -0.9)" fill="#0b55a1"/><path d="M94.6,17.5A2.3,2.3,0,0,1,92.3,19c-1.3,0-2.6-1-2.6-3.2s1-3.1,2.5-3.1,2.3.8,2.3,2.7V16h-4a2,2,0,0,0,1.8,2.2,1.9,1.9,0,0,0,1.7-1Zm-1-2.2c0-1.2-.5-1.9-1.4-1.9s-1.6.7-1.6,1.9Z" transform="translate(-1 -0.9)" fill="#0b55a1"/><path d="M95.9,12.8h.8V14h0a2.2,2.2,0,0,1,2-1.3v.8c-1.1.1-1.6.7-2,2v3.3h-.8Z" transform="translate(-1 -0.9)" fill="#0b55a1"/><path d="M100.8,12.8v.8h0a2.6,2.6,0,0,1,1.8-.9,1.5,1.5,0,0,1,1.7,1.7v4.4h-.8V14.5c0-.8-.4-1.1-1-1.1a2.8,2.8,0,0,0-1.7.9v4.5H100v-6Z" transform="translate(-1 -0.9)" fill="#0b55a1"/><path d="M106,14a2.6,2.6,0,0,1,2.3-1.3,1.9,1.9,0,0,1,2.1,1.8v3a3.5,3.5,0,0,0,.2,1.3h-.9V18a2.6,2.6,0,0,1-2,1,1.6,1.6,0,0,1-1.7-1.7c0-1.3,1-2,3.7-2.5v-.3c0-.8-.5-1.1-1.3-1.1a1.4,1.4,0,0,0-1.5.9Zm3.6,1.6c-1.9.3-2.9.9-2.9,1.7a.9.9,0,0,0,1,.9,2.8,2.8,0,0,0,1.9-1Z" transform="translate(-1 -0.9)" fill="#0b55a1"/><path d="M112.4,12.8v-2h.8v2h1.4v.7h-1.4v4.3c0,.3.2.4.7.4h.8v.7h-1c-.9,0-1.3-.3-1.3-1V13.5h-1v-.7Z" transform="translate(-1 -0.9)" fill="#0b55a1"/><path d="M117.1,11.3h-.8v-1h.8Zm-.8,1.5h.8v6h-.8Z" transform="translate(-1 -0.9)" fill="#0b55a1"/><path d="M121.2,19c-1.6,0-2.5-1.4-2.5-3.2s.9-3.1,2.5-3.1,2.5,1.4,2.5,3.1-.8,3.2-2.5,3.2m0-5.6c-1,0-1.6.9-1.6,2.4s.6,2.4,1.6,2.4,1.7-.8,1.7-2.4-.7-2.4-1.7-2.4" transform="translate(-1 -0.9)" fill="#0b55a1"/><path d="M126,12.8v.8h0a2.6,2.6,0,0,1,1.8-.9,1.6,1.6,0,0,1,1.8,1.7v4.4h-.9V14.5c0-.8-.4-1.1-1-1.1a2.8,2.8,0,0,0-1.7.9v4.5h-.8v-6Z" transform="translate(-1 -0.9)" fill="#0b55a1"/><path d="M131.3,14a2.3,2.3,0,0,1,2.2-1.3c1.1,0,2.1.5,2.1,1.8v3a3.5,3.5,0,0,0,.2,1.3h-.9V18a2.6,2.6,0,0,1-2,1,1.6,1.6,0,0,1-1.7-1.7c0-1.3,1-2,3.7-2.5v-.3c0-.8-.5-1.1-1.3-1.1a1.5,1.5,0,0,0-1.5.9Zm3.5,1.6c-1.9.3-2.9.9-2.9,1.7a1,1,0,0,0,1,.9,2.8,2.8,0,0,0,1.9-1Z" transform="translate(-1 -0.9)" fill="#0b55a1"/><rect x="136.6" y="9.6" width="0.8" height="8.4" fill="#0b55a1"/><polygon points="75.2 31.2 75.2 22.8 76.2 22.8 76.2 30.4 80.1 30.4 80.1 31.2 75.2 31.2" fill="#0b55a1"/><path d="M82.1,27.2a2.6,2.6,0,0,1,2.3-1.3,1.9,1.9,0,0,1,2.1,1.8v3c0,.7.1,1,.1,1.4h-.8v-.9a2.6,2.6,0,0,1-2,1A1.6,1.6,0,0,1,82,30.5c0-1.3,1-2,3.7-2.5v-.3c0-.8-.6-1.1-1.3-1.1a1.4,1.4,0,0,0-1.5,1Zm3.6,1.6c-2,.3-2.9.9-2.9,1.7a.9.9,0,0,0,1,.9,2.8,2.8,0,0,0,1.9-1Z" transform="translate(-1 -0.9)" fill="#0b55a1"/><path d="M89.2,23.7v2.9h0a2.6,2.6,0,0,1,1.6-.7c1,0,2.4.8,2.4,3.1s-1.4,3.2-2.5,3.2a2.3,2.3,0,0,1-1.7-.8v.7h-.6V23.7Zm0,6.9a1.8,1.8,0,0,0,1.5.8c1,0,1.7-.8,1.7-2.3s-.7-2.5-1.7-2.5a2.1,2.1,0,0,0-1.5.8Z" transform="translate(-1 -0.9)" fill="#0b55a1"/><path d="M96.7,32.2c-1.7,0-2.5-1.4-2.5-3.2s.8-3.1,2.5-3.1,2.4,1.4,2.4,3.1-.8,3.2-2.4,3.2m0-5.6c-1,0-1.7.9-1.7,2.4s.7,2.4,1.7,2.4,1.6-.8,1.6-2.4-.6-2.4-1.6-2.4" transform="translate(-1 -0.9)" fill="#0b55a1"/><path d="M104.2,32.1v-.9h0a2.6,2.6,0,0,1-1.8,1,1.7,1.7,0,0,1-1.8-1.8V26h.9v4.4c0,.8.3,1,.9,1a2.8,2.8,0,0,0,1.8-.9V26h.8v6.1Z" transform="translate(-1 -0.9)" fill="#0b55a1"/><path d="M106.9,26h.8v1.2h0a2.2,2.2,0,0,1,2-1.3v.8c-1.1.1-1.6.8-2,2v3.4h-.8Z" transform="translate(-1 -0.9)" fill="#0b55a1"/><path d="M78.9,36.8c2,0,3.3,1.5,3.3,4.3s-1.3,4.3-3.3,4.3-3.3-1.5-3.3-4.3,1.2-4.3,3.3-4.3m0,7.8c1.5,0,2.3-1.1,2.3-3.5s-.8-3.6-2.3-3.6-2.4,1.2-2.4,3.6.9,3.5,2.4,3.5" transform="translate(-1 -0.9)" fill="#0b55a1"/><path d="M83.6,39.2h.8v1.2h0a2.2,2.2,0,0,1,2-1.3V40c-1,0-1.6.7-2,1.9v3.4h-.8Z" transform="translate(-1 -0.9)" fill="#0b55a1"/><path d="M92.2,39.8l-.9.2a1.9,1.9,0,0,1,.4,1.2,2.1,2.1,0,0,1-2.2,2.1H88.4a.5.5,0,0,0-.4.5.5.5,0,0,0,.5.5c2.8,0,3.7.5,3.7,1.7s-.8,1.6-2.7,1.6S86.9,47,86.9,46s.3-.9,1-1.2a.9.9,0,0,1-.8-.9c0-.5.4-.7.9-1a2,2,0,0,1-.9-1.7,2.1,2.1,0,0,1,2.3-2.1,2.2,2.2,0,0,1,1.5.4,3.5,3.5,0,0,1,1.3-.5ZM89.4,45c-1.4,0-1.7.6-1.7,1s.2.8,1.9.8,1.8-.3,1.8-.9-.6-.9-2-.9m0-5.2a1.3,1.3,0,0,0-1.5,1.4,1.4,1.4,0,0,0,1.6,1.4,1.3,1.3,0,0,0,1.4-1.3,1.4,1.4,0,0,0-1.5-1.5" transform="translate(-1 -0.9)" fill="#0b55a1"/><path d="M93.1,40.4a2.6,2.6,0,0,1,2.3-1.3,1.9,1.9,0,0,1,2.1,1.8V44a4.5,4.5,0,0,0,.1,1.3h-.8v-.9a2.6,2.6,0,0,1-2,1,1.7,1.7,0,0,1-1.8-1.7c0-1.3,1.1-2,3.7-2.4v-.4c0-.8-.5-1.1-1.2-1.1a1.5,1.5,0,0,0-1.5,1ZM96.6,42c-1.9.3-2.8.9-2.8,1.7a1,1,0,0,0,1,1,2.7,2.7,0,0,0,1.8-1Z" transform="translate(-1 -0.9)" fill="#0b55a1"/><path d="M100.2,39.2V40h0a2.4,2.4,0,0,1,1.8-.9,1.6,1.6,0,0,1,1.7,1.8v4.4h-.8V40.9c0-.8-.4-1.1-1-1.1a2.6,2.6,0,0,0-1.7.9v4.6h-.9V39.2Z" transform="translate(-1 -0.9)" fill="#0b55a1"/><path d="M106.8,37.8h-.9v-1h.9Zm-.9,1.4h.9v6.1h-.9Z" transform="translate(-1 -0.9)" fill="#0b55a1"/><polygon points="111.8 44.4 107.3 44.4 107.3 43.8 110.6 39 107.6 39 107.6 38.3 111.7 38.3 111.7 38.9 108.4 43.7 111.8 43.7 111.8 44.4" fill="#0b55a1"/><path d="M113.8,40.4a2.5,2.5,0,0,1,2.3-1.3,1.9,1.9,0,0,1,2.1,1.8V44a4.5,4.5,0,0,0,.1,1.3h-.8v-.9a2.8,2.8,0,0,1-2,1,1.7,1.7,0,0,1-1.8-1.7c0-1.3,1-2,3.7-2.4v-.4c0-.8-.5-1.1-1.2-1.1a1.8,1.8,0,0,0-1.6,1Zm3.5,1.6c-1.9.3-2.8.9-2.8,1.7a1,1,0,0,0,1,1,3,3,0,0,0,1.8-1Z" transform="translate(-1 -0.9)" fill="#0b55a1"/><path d="M120.2,39.2v-2h.8v2h1.4v.7H121v4.3c0,.3.2.5.7.5h.7v.7h-.9c-1,0-1.3-.2-1.3-1V39.9h-1v-.7Z" transform="translate(-1 -0.9)" fill="#0b55a1"/><path d="M124.9,37.8H124v-1h.9Zm-.9,1.4h.9v6.1H124Z" transform="translate(-1 -0.9)" fill="#0b55a1"/><path d="M129,45.4c-1.7,0-2.5-1.4-2.5-3.2s.8-3.1,2.5-3.1,2.5,1.4,2.5,3.1-.9,3.2-2.5,3.2m0-5.6c-1,0-1.7.9-1.7,2.4s.7,2.5,1.7,2.5,1.6-.9,1.6-2.5-.6-2.4-1.6-2.4" transform="translate(-1 -0.9)" fill="#0b55a1"/><path d="M133.8,39.2V40h0a2.6,2.6,0,0,1,1.8-.9,1.6,1.6,0,0,1,1.7,1.8v4.4h-.8V40.9c0-.8-.4-1.1-1-1.1a2.6,2.6,0,0,0-1.7.9v4.6h-.9V39.2Z" transform="translate(-1 -0.9)" fill="#0b55a1"/><path d="M16.4,15.6l-.3.6a1,1,0,0,1-1.2.5l-.8-.3a.8.8,0,0,0-1.1.5l-.6,1.6a.7.7,0,0,0,.5,1l.8.3a1.1,1.1,0,0,1,.6,1.2l-.4,1.7a1,1,0,0,1-.9.8h-.9a.9.9,0,0,0-.9.8V26a.8.8,0,0,0,.8.8h.9a1.1,1.1,0,0,1,.9.8l.2,1.8a1,1,0,0,1-.7,1.1l-.8.2a.8.8,0,0,0-.5,1.1l.7,2.4,4.6-1.4a18.2,18.2,0,0,1,1.1-16.2A18,18,0,0,1,31.9,7.6L30.8,3l-2.5.5a.9.9,0,0,0-.6,1l.2.9a1.1,1.1,0,0,1-.6,1.1l-1.6.7a1.1,1.1,0,0,1-1.3-.4L24,6.1a1,1,0,0,0-1.2-.3l-1.4.9a.9.9,0,0,0-.3,1.2l.5.7a1.1,1.1,0,0,1-.2,1.2L20,11a.9.9,0,0,1-1.2,0l-.7-.5a.9.9,0,0,0-1.2.1l-1,1.3a.8.8,0,0,0,.1,1.2l.6.6a.8.8,0,0,1,.2,1.2l-.4.7" transform="translate(-1 -0.9)" fill="#0b55a1"/><path d="M34,46h.8a1,1,0,0,1,1,.8v.8a.8.8,0,0,0,1,.7l1.7-.2a1,1,0,0,0,.7-1l-.2-.8a1,1,0,0,1,.7-1.1l1.7-.6a1.2,1.2,0,0,1,1.2.5l.3.7a1,1,0,0,0,1.2.4l1.5-.8a.9.9,0,0,0,.3-1.2l-.4-.7a.9.9,0,0,1,.3-1.2l1.4-1.1a1.1,1.1,0,0,1,1.3,0l.6.6a.9.9,0,0,0,1.2,0l1.7-1.9-3.5-3.2A18.3,18.3,0,0,1,34,43.8a18.6,18.6,0,0,1-14.6-7.1l-3.5,3.2,1.8,1.9a.9.9,0,0,0,1.2,0l.6-.6a1,1,0,0,1,1.3,0l1.4,1a1.1,1.1,0,0,1,.2,1.3l-.4.7a1,1,0,0,0,.4,1.2l1.5.8a.8.8,0,0,0,1.1-.4l.4-.7a1.1,1.1,0,0,1,1.2-.5l1.7.6a.9.9,0,0,1,.6,1.1v.8a.9.9,0,0,0,.7,1l1.7.2a.7.7,0,0,0,.9-.7l.2-.8a1,1,0,0,1,1-.8H34" transform="translate(-1 -0.9)" fill="#0b55a1"/><path d="M51.6,15.6a2.2,2.2,0,0,0-.4-.7,1,1,0,0,1,.2-1.2l.7-.6a.9.9,0,0,0,.1-1.2l-1.1-1.3a.9.9,0,0,0-1.2-.1l-.6.5A1.1,1.1,0,0,1,48,11L46.7,9.8a.9.9,0,0,1-.2-1.2l.4-.7a.8.8,0,0,0-.2-1.2l-1.5-.9a.8.8,0,0,0-1.1.3l-.5.7a1,1,0,0,1-1.2.4l-1.6-.7a1.1,1.1,0,0,1-.6-1.1l.2-.9a.9.9,0,0,0-.7-1L37.3,3,36.2,7.6a18.2,18.2,0,0,1,13.5,9.1,18.2,18.2,0,0,1,1.1,16.2l4.6,1.4.7-2.4a.9.9,0,0,0-.6-1.1l-.8-.2a1.1,1.1,0,0,1-.6-1.1l.2-1.8a1,1,0,0,1,.9-.8h.9a.9.9,0,0,0,.8-.8V24.3a.8.8,0,0,0-.8-.8h-.9a1.1,1.1,0,0,1-1-.8L53.8,21a1,1,0,0,1,.6-1.2l.8-.3a.8.8,0,0,0,.5-1l-.6-1.6a.8.8,0,0,0-1.1-.5l-.8.3a1,1,0,0,1-1.2-.5l-.4-.6" transform="translate(-1 -0.9)" fill="#0b55a1"/><path d="M7.6,15.2h0" transform="translate(-1 -0.9)" fill="#0b55a1"/><path d="M14.9,5.6H15a3.6,3.6,0,0,1,1.7-.9C21.3,3.5,21,1.9,23,1h-.1a3.3,3.3,0,0,1-1.6.5c-5.4,0-5,3.2-6.4,4.2" transform="translate(-1 -0.9)" fill="#0b55a1"/><path d="M9.5,11.6h.1A5.2,5.2,0,0,1,12,10.1c4.2-1.2,5.7-4,6.9-4.9h-.1c-1.5,1.1-3.4,0-6.6,3.4h-.1c2.6-3.1,2.6-5.3,3.8-6.4h0c-7.6,4.5-4.3,7-6.4,9.6" transform="translate(-1 -0.9)" fill="#0b55a1"/><path d="M9.9,6.3C2.7,13.4,7.2,15.2,6,18.7h.1a4.6,4.6,0,0,1,2.4-2.2c3-1.4,3.9-4.9,5.1-6h0c-1.5,1.6-3.9.7-5.9,4.6H7.5c1.7-3.5.9-6.6,2.4-8.8h0" transform="translate(-1 -0.9)" fill="#0b55a1"/><path d="M4.7,28.1h.1a4,4,0,0,1,1.5-3.6c3.4-3.1,2.8-5.9,4.2-8.1h-.1c-1.1,1.9-5,3.9-5.2,6.7H5.1c.6-4-1.6-6.7-.4-9.3H4.6c-4.6,9.3-.8,9.2.1,14.5" transform="translate(-1 -0.9)" fill="#0b55a1"/><path d="M6.4,37h.1c-.9-2.2.7-5,.7-5.2,2.1-4,1.4-7.6,1.9-8.8H9c-1.1,2.8-4.2,4.3-3.7,8.9H5.1c-.4-2.9-3.7-5.6-3.6-8.7h0c-2.1,11,3.7,11,4.9,13.9" transform="translate(-1 -0.9)" fill="#0b55a1"/><path d="M11,45.2h.1a6.2,6.2,0,0,1-1.3-5c1-5.6-.8-6.6-.9-9.1H8.8c-.1,2.8-2.9,6-.3,9.9H8.4c-2.9-4.2-5.2-3.2-6.5-7.3H1.8c2,12.2,7.4,8.5,9.2,11.5" transform="translate(-1 -0.9)" fill="#0b55a1"/><path d="M22.2,50.5h0c-3.8.8-5.7,0-6.4-3.4s-4.3-6.8-4.7-8.7H11c.7,3.4-.9,5.5,3.2,9.6h-.1c-4-3.2-6.7-2-8.3-4.2-.1,0-.1,0-.1.1,5,8.2,10.3,8.6,16.5,6.6" transform="translate(-1 -0.9)" fill="#0b55a1"/><path d="M12.9,51.9h0c5.1,3,10.4-1.2,16.8-1.3,1.6-.1,6.5.2,10.9,5.4l-1.2.3a10.2,10.2,0,0,0-5.7-4.9c-5.9-1.4-6,4-12.5,4.1a12,12,0,0,1-8.3-3.6" transform="translate(-1 -0.9)" fill="#0b55a1"/><path d="M60.4,15.2h0" transform="translate(-1 -0.9)" fill="#0b55a1"/><path d="M60.4,15.2h0" transform="translate(-1 -0.9)" fill="#0b55a1"/><path d="M7.6,15.2h0" transform="translate(-1 -0.9)" fill="#0b55a1"/><path d="M60.4,15.2h0" transform="translate(-1 -0.9)" fill="#0b55a1"/><path d="M53.1,5.6H53a3.6,3.6,0,0,0-1.7-.9C46.7,3.5,47,1.9,45,1h.1a3.3,3.3,0,0,0,1.6.5c5.4,0,5,3.2,6.4,4.2" transform="translate(-1 -0.9)" fill="#0b55a1"/><path d="M58.5,11.6h-.1A5.2,5.2,0,0,0,56,10.1c-4.2-1.2-5.7-4-6.9-4.9h.1c1.5,1.1,3.4,0,6.6,3.4h.1c-2.6-3.1-2.6-5.3-3.8-6.4h0c7.6,4.5,4.3,7,6.4,9.6" transform="translate(-1 -0.9)" fill="#0b55a1"/><path d="M58.1,6.3c7.2,7.1,2.7,8.9,3.9,12.4h-.1a5,5,0,0,0-2.3-2.2c-3.1-1.4-4-4.9-5.2-6h0c1.5,1.6,3.9.7,5.9,4.6h.2c-1.6-3.5-.9-6.6-2.4-8.8h0" transform="translate(-1 -0.9)" fill="#0b55a1"/><path d="M63.3,28.1h-.1a4,4,0,0,0-1.5-3.6c-3.4-3.1-2.8-5.9-4.2-8.1h.1c1.1,1.9,5,3.9,5.2,6.7h.1c-.6-4,1.6-6.7.4-9.3h.1c4.6,9.3.8,9.2-.1,14.5" transform="translate(-1 -0.9)" fill="#0b55a1"/><path d="M61.6,37h-.1c.9-2.2-.7-5-.7-5.2-2.1-4-1.4-7.6-1.9-8.8H59c1.1,2.8,4.2,4.3,3.7,8.9h.2c.4-2.9,3.7-5.6,3.6-8.7h0c2.1,11-3.7,11-4.9,13.9" transform="translate(-1 -0.9)" fill="#0b55a1"/><path d="M57,45.2h-.1a6.2,6.2,0,0,0,1.3-5c-1-5.6.8-6.6.9-9.1h.1c.1,2.8,2.9,6,.3,9.9h.1c2.9-4.2,5.2-3.2,6.5-7.3h.1c-2,12.2-7.4,8.5-9.2,11.5" transform="translate(-1 -0.9)" fill="#0b55a1"/><path d="M45.8,50.5h0c3.8.8,5.7,0,6.4-3.4s4.3-6.8,4.7-8.7H57c-.7,3.4.9,5.5-3.2,9.6h.1c4-3.2,6.7-2,8.3-4.2.1,0,.1,0,.1.1-5,8.2-10.3,8.6-16.5,6.6" transform="translate(-1 -0.9)" fill="#0b55a1"/><path d="M55.1,51.9h0c-5.1,3-10.4-1.2-16.8-1.3-1.6-.1-6.5.2-10.9,5.4l1.2.3a10.2,10.2,0,0,1,5.7-4.9c5.9-1.4,6,4,12.5,4.1a12,12,0,0,0,8.3-3.6" transform="translate(-1 -0.9)" fill="#0b55a1"/><path d="M7.6,15.2h0" transform="translate(-1 -0.9)" fill="#0b55a1"/><path d="M7.6,15.2h0" transform="translate(-1 -0.9)" fill="#0b55a1"/><path d="M60.4,15.2h0" transform="translate(-1 -0.9)" fill="#0b55a1"/><path d="M41.9,15.3h-.1A6.7,6.7,0,0,0,36,19.4a11.4,11.4,0,0,0-.7,4.6,11.4,11.4,0,0,0,.7,4.6c1.2,2.5,3.4,4.3,5.8,4.3h.1c2.4,0,4.7-1.8,5.8-4.3a11.4,11.4,0,0,0,.7-4.6,11.4,11.4,0,0,0-.7-4.6,6.5,6.5,0,0,0-5.8-4.1m3.7,8.8c0,1.5-.1,2.8-.1,2.8a7.1,7.1,0,0,1-.7,3.4,3.2,3.2,0,0,1-2.7,1.5h-.2a3.3,3.3,0,0,1-2.8-1.5,7.1,7.1,0,0,1-.7-3.4V24.1h0V21.2c.1-1.2.1-2.5.7-3.3a3.3,3.3,0,0,1,2.8-1.5h.2a3.2,3.2,0,0,1,2.7,1.5c.6.8.6,2.1.7,3.3s.1,1.3.1,2.8Z" transform="translate(-1 -0.9)" fill="#0b55a1"/><path d="M43.7,33.6a7.2,7.2,0,0,1-1.3,2,2.9,2.9,0,0,1-1.8.5l-5.8.3H33.5s-1,0-1.1-.9V15c.1-.9,1.1-1,1.1-1h1.3V12.8H27V14h1.3a1.1,1.1,0,0,1,1,1V35.5a1,1,0,0,1-1,.9H27v1.2H43.2l1.1-3.8v-.2Z" transform="translate(-1 -0.9)" fill="#0b55a1"/><path d="M25.3,17.6a.9.9,0,0,1,.9-.8h1.1v-1H20.7v1h1.1a.9.9,0,0,1,.9.8V30.7c-.1.7-.9.8-.9.8H20.7v1h6.6v-1H26.2s-.8-.1-.9-.8Z" transform="translate(-1 -0.9)" fill="#0b55a1"/></svg>